<?xml version="1.0" encoding="UTF-8"?><svg id="Layer_2" xmlns="http://www.w3.org/2000/svg" viewBox="0 0 512 511.98"><defs><style>.cls-1{fill:#fff;}.cls-2{fill:#00a2d6;}</style></defs><g id="Layer_1-2"><g><path class="cls-2" d="m512,256c0,141.37-114.62,255.99-256.01,255.99S0,397.37,0,256,114.62,0,255.99,0s256.01,114.62,256.01,256"/><path class="cls-1" d="m428.96,188.97c14.65,0,24.41,1.01,29.31,3.05,4.88,2.04,7.32,6.31,7.32,12.82,0,2.99-.27,6.11-.81,9.36-.55,3.25-1.63,7.6-3.25,13.03-1.63,5.43-4,12.35-7.13,20.76-3.11,8.41-7.26,19.27-12.41,32.56l-52.91,135.54-65.12-178.27c-2.72-7.33-4.75-13.57-6.1-18.72-1.37-5.16-2.04-9.63-2.04-13.44,0-2.98.54-5.49,1.63-7.53,1.08-2.04,2.99-3.67,5.69-4.88,2.72-1.22,6.45-2.1,11.19-2.65,4.75-.54,10.66-.95,17.72-1.22v-16.68h-151.88v-73.33c0-10.31.41-18.58,1.23-24.83.81-6.24,2.58-11.12,5.28-14.65,2.72-3.52,6.65-5.96,11.82-7.32,5.15-1.36,11.93-2.17,20.35-2.44v-16.28h-109.7c-8.73,5-17.07,10.54-25.12,16.5,7.22.55,13.29,1.33,17.79,2.43,5.02,1.22,8.89,3.52,11.6,6.92,2.72,3.39,4.54,8,5.49,13.83.95,5.84,1.43,13.51,1.43,23v260.07c0,23.06-3.13,40.97-9.35,53.72-6.25,12.76-15.21,19.13-26.87,19.13-6.24,0-11.53-1.49-15.86-4.48-4.34-2.99-9.23-8.95-14.66-17.91-5.42-8.95-9.98-15.06-13.63-18.31-3.67-3.26-8.62-4.89-14.86-4.89-3.52,0-6.74.54-9.73,1.51,15.08,25.66,34.32,48.58,57.08,67.5,1.35.03,2.54.18,3.93.18,34.46,0,60.37-8.96,77.73-26.87,17.36-17.91,26.05-43.96,26.05-78.15v-158.55c7,.15,13.26.92,18.58,2.53,5.83,1.77,11.19,5.02,16.08,9.77,4.88,4.75,9.5,11.19,13.84,19.33,4.33,8.14,9.23,18.59,14.65,31.34l97.06,237.13c13.73-6.14,26.89-13.3,39.21-21.66l98.18-246c2.49-6.32,5.63-11.62,9.26-16.12-2.26-11.36-5.44-22.36-9.15-33.12h-68.9v16.28Z"/></g></g></svg>