<?xml version="1.0" encoding="UTF-8"?><svg id="Layer_2" xmlns="http://www.w3.org/2000/svg" viewBox="0 0 229.37 134.55"><defs><style>.cls-1{fill:#fff;stroke-width:0px;}</style></defs><g id="background"><path class="cls-1" d="m53.57,134.55l-18.93-18.93h-16.76c-9.86,0-17.88-8.02-17.88-17.88V17.88C0,8.02,8.02,0,17.88,0h193.61c9.86,0,17.88,8.02,17.88,17.88v79.86c0,9.86-8.02,17.88-17.88,17.88H72.5l-18.93,18.93ZM17.88,3c-8.21,0-14.88,6.68-14.88,14.88v79.86c0,8.21,6.68,14.88,14.88,14.88h18l17.69,17.69,17.69-17.69h140.23c8.21,0,14.88-6.68,14.88-14.88V17.88c0-8.21-6.68-14.88-14.88-14.88H17.88Z"/><path class="cls-1" d="m50.73,68.02c0,1.66.05,2.96.15,3.91.1.95.32,1.69.67,2.21.34.53.87.87,1.58,1.03.71.16,1.67.28,2.88.36v2.42h-19.08v-2.42c1.21-.08,2.18-.2,2.91-.36.73-.16,1.27-.48,1.64-.97.36-.48.59-1.18.7-2.09.1-.91.15-2.13.15-3.66v-24.89c0-2.42-.03-4.33-.09-5.72s-.17-2.45-.33-3.18c-.12-.52-.26-.94-.42-1.24-.16-.3-.42-.54-.76-.73-.34-.18-.81-.3-1.39-.36-.59-.06-1.32-.09-2.21-.09v-2.24l13.51-2.3v22.35h.24c1.25-1.66,2.65-2.87,4.21-3.63,1.55-.77,3.42-1.15,5.6-1.15,3.96,0,7.03,1.21,9.21,3.63,1.05,1.21,1.88,2.68,2.48,4.39.61,1.72.91,3.5.91,5.36v9.39c0,1.7.04,3.02.12,3.97.08.95.29,1.68.64,2.18.34.51.86.84,1.54,1,.69.16,1.63.28,2.85.36v2.42h-18.96v-2.42c1.21-.04,2.17-.15,2.88-.33.71-.18,1.25-.51,1.64-1,.38-.48.62-1.18.73-2.09.1-.91.15-2.13.15-3.66v-7.45c0-4.28-.46-7.31-1.39-9.08-.93-1.78-2.52-2.67-4.79-2.67-2.42,0-4.34.89-5.75,2.67-.69.93-1.22,2.08-1.61,3.45-.38,1.37-.58,2.91-.58,4.6v8.06Z"/><path class="cls-1" d="m111.91,72.32c-3.67,4.16-8.26,6.24-13.75,6.24-2.5,0-4.78-.39-6.81-1.18-2.04-.79-3.79-1.9-5.24-3.33-1.45-1.43-2.58-3.14-3.39-5.12-.81-1.98-1.21-4.18-1.21-6.6s.42-4.79,1.27-6.87c.85-2.08,2.05-3.88,3.6-5.39s3.39-2.7,5.51-3.54c2.12-.85,4.45-1.27,7-1.27,4.28,0,7.61,1.15,9.99,3.45,2.38,2.3,3.57,5.53,3.57,9.69,0,.65-.1,1.04-.3,1.18-.2.14-.77.21-1.7.21h-19.5c-.16.36-.24,1.03-.24,2,0,3.96.86,7.09,2.57,9.39,1.72,2.3,4.05,3.45,7,3.45,1.7,0,3.38-.38,5.06-1.15,1.67-.77,3.3-1.86,4.88-3.27l1.7,2.12Zm-11.75-15.93c1.62,0,2.66-.09,3.12-.27s.7-.62.7-1.3c0-1.78-.51-3.23-1.51-4.36-1.01-1.13-2.28-1.7-3.82-1.7-1.74,0-3.28.72-4.63,2.15-1.35,1.43-2.23,3.26-2.63,5.48h8.78Z"/><path class="cls-1" d="m129.59,68.02c0,1.62.06,2.91.18,3.88.12.97.36,1.72.73,2.24.36.53.89.88,1.57,1.06s1.61.29,2.79.33v2.42h-19.08v-2.42c1.13-.04,2.05-.17,2.76-.39.71-.22,1.25-.58,1.64-1.09.38-.5.65-1.21.79-2.12.14-.91.21-2.07.21-3.48v-25.01c0-2.34-.04-4.27-.12-5.78s-.18-2.55-.3-3.12c-.2-1.01-.66-1.68-1.36-2-.71-.32-1.99-.48-3.85-.48v-2.06l14.05-2.3v40.34Z"/><path class="cls-1" d="m151.09,68.02c0,1.62.06,2.91.18,3.88.12.97.36,1.72.73,2.24.36.53.89.88,1.57,1.06s1.61.29,2.79.33v2.42h-19.08v-2.42c1.13-.04,2.05-.17,2.76-.39.71-.22,1.25-.58,1.64-1.09.38-.5.65-1.21.79-2.12.14-.91.21-2.07.21-3.48v-25.01c0-2.34-.04-4.27-.12-5.78s-.18-2.55-.3-3.12c-.2-1.01-.66-1.68-1.36-2-.71-.32-1.99-.48-3.85-.48v-2.06l14.05-2.3v40.34Z"/><path class="cls-1" d="m177.5,45.25c2.42,0,4.71.41,6.87,1.24,2.16.83,4.06,1.97,5.69,3.42,1.64,1.45,2.93,3.18,3.88,5.18.95,2,1.42,4.19,1.42,6.57s-.47,4.72-1.42,6.78c-.95,2.06-2.24,3.84-3.88,5.33-1.63,1.49-3.53,2.67-5.69,3.51-2.16.85-4.45,1.27-6.87,1.27s-4.64-.41-6.78-1.24c-2.14-.83-4.02-1.99-5.63-3.48-1.62-1.49-2.89-3.28-3.82-5.36-.93-2.08-1.39-4.35-1.39-6.81s.46-4.58,1.39-6.6c.93-2.02,2.2-3.76,3.82-5.21,1.61-1.45,3.49-2.58,5.63-3.39,2.14-.81,4.4-1.21,6.78-1.21Zm0,3.51c-1.21,0-2.32.31-3.33.94-1.01.63-1.87,1.5-2.57,2.63-.71,1.13-1.25,2.49-1.64,4.09-.38,1.6-.58,3.36-.58,5.3s.19,3.84.58,5.45c.38,1.62.93,2.99,1.64,4.12.71,1.13,1.55,2.01,2.54,2.63.99.63,2.11.94,3.36.94s2.39-.31,3.42-.94c1.03-.63,1.91-1.51,2.63-2.67.73-1.15,1.29-2.53,1.7-4.15.4-1.61.61-3.41.61-5.39s-.2-3.69-.61-5.27c-.4-1.57-.97-2.94-1.7-4.09s-1.61-2.04-2.63-2.67c-1.03-.63-2.17-.94-3.42-.94Z"/></g></svg>