<?xml version="1.0" encoding="UTF-8"?><svg id="Layer_2" xmlns="http://www.w3.org/2000/svg" viewBox="0 0 43.17 43.17"><defs><style>.cls-1{fill:#00a2d6;}.cls-1,.cls-2{stroke-width:0px;}.cls-2{fill:#fff;}</style></defs><g id="background"><circle class="cls-2" cx="21.59" cy="21.59" r="21.59"/><path class="cls-1" d="m39.18,21.9c0,9.76-7.91,17.67-17.67,17.67S3.84,31.66,3.84,21.9,11.75,4.24,21.51,4.24s17.67,7.91,17.67,17.67"/><path class="cls-2" d="m13.53,10.9c0-.66-.03-1.18-.1-1.59-.07-.4-.19-.72-.38-.95-.19-.23-.45-.39-.8-.48-.35-.08-.81-.15-1.39-.18v-1.12h9.47v1.12c-.58.02-1.05.07-1.4.17-.36.09-.63.26-.82.51-.19.24-.31.58-.36,1.01-.06.43-.08,1-.08,1.71v17.16c0,2.36-.6,4.16-1.8,5.39s-2.99,1.85-5.36,1.85c-1.7,0-3.02-.29-3.95-.87-.93-.58-1.39-1.32-1.39-2.22,0-.54.17-.96.52-1.25.35-.29.77-.44,1.28-.44.43,0,.77.11,1.03.34.25.22.57.65.94,1.26.38.62.71,1.03,1.01,1.24.3.21.66.31,1.09.31.8,0,1.42-.44,1.85-1.32.43-.88.65-2.12.65-3.71V10.9Z"/><path class="cls-2" d="m30.69,32.95l3.65-9.35c.36-.92.64-1.67.86-2.25.22-.58.38-1.06.49-1.43.11-.37.19-.67.22-.9.04-.22.06-.44.06-.65,0-.45-.17-.74-.5-.88-.34-.14-1.01-.21-2.02-.21v-1.12h7.98v1.12c-1.55,0-2.63.76-3.23,2.27l-7.39,18.51h-2.08l-6.71-16.4c-.37-.88-.71-1.6-1.01-2.16-.3-.56-.62-1.01-.96-1.33s-.71-.55-1.11-.67c-.4-.12-.88-.18-1.42-.18v-1.15h10.62v1.15c-.49.02-.89.05-1.22.08-.33.04-.58.1-.77.18-.19.08-.32.2-.39.34-.08.14-.11.31-.11.52,0,.26.05.57.14.93.09.36.23.79.42,1.29l4.49,12.3Z"/></g></svg>