<svg id="back" xmlns="http://www.w3.org/2000/svg" xmlns:xlink="http://www.w3.org/1999/xlink" viewBox="0 0 2000 1700"><defs><style>.cls-1{fill:#0e1212;}.cls-2{fill:#111d1d;}.cls-10,.cls-100,.cls-101,.cls-102,.cls-103,.cls-104,.cls-105,.cls-106,.cls-107,.cls-108,.cls-109,.cls-11,.cls-110,.cls-111,.cls-112,.cls-113,.cls-114,.cls-115,.cls-116,.cls-117,.cls-118,.cls-119,.cls-12,.cls-120,.cls-121,.cls-122,.cls-123,.cls-124,.cls-125,.cls-126,.cls-127,.cls-128,.cls-129,.cls-13,.cls-130,.cls-131,.cls-132,.cls-133,.cls-134,.cls-135,.cls-136,.cls-137,.cls-138,.cls-139,.cls-14,.cls-140,.cls-141,.cls-15,.cls-16,.cls-17,.cls-18,.cls-19,.cls-2,.cls-20,.cls-21,.cls-22,.cls-23,.cls-24,.cls-25,.cls-26,.cls-27,.cls-28,.cls-29,.cls-3,.cls-30,.cls-31,.cls-32,.cls-33,.cls-34,.cls-35,.cls-36,.cls-37,.cls-38,.cls-39,.cls-4,.cls-40,.cls-41,.cls-42,.cls-43,.cls-44,.cls-45,.cls-46,.cls-47,.cls-48,.cls-49,.cls-5,.cls-50,.cls-51,.cls-52,.cls-53,.cls-54,.cls-55,.cls-56,.cls-57,.cls-58,.cls-59,.cls-6,.cls-60,.cls-61,.cls-62,.cls-63,.cls-64,.cls-65,.cls-66,.cls-67,.cls-68,.cls-69,.cls-7,.cls-70,.cls-71,.cls-72,.cls-73,.cls-74,.cls-75,.cls-76,.cls-77,.cls-78,.cls-79,.cls-8,.cls-80,.cls-81,.cls-82,.cls-83,.cls-84,.cls-85,.cls-86,.cls-87,.cls-88,.cls-89,.cls-9,.cls-90,.cls-91,.cls-92,.cls-93,.cls-94,.cls-95,.cls-96,.cls-97,.cls-98,.cls-99{fill-rule:evenodd;}.cls-3{fill:url(#GradientFill_1);}.cls-4{fill:url(#GradientFill_2);}.cls-5{fill:url(#GradientFill_2-2);}.cls-6{fill:url(#GradientFill_2-3);}.cls-7{fill:url(#GradientFill_2-4);}.cls-8{fill:url(#GradientFill_2-5);}.cls-9{fill:url(#GradientFill_2-6);}.cls-10{fill:url(#GradientFill_2-7);}.cls-11{fill:url(#GradientFill_2-8);}.cls-12{fill:url(#GradientFill_2-9);}.cls-13{fill:url(#GradientFill_2-10);}.cls-14{fill:url(#GradientFill_2-11);}.cls-15{fill:url(#GradientFill_2-12);}.cls-16{fill:url(#GradientFill_2-13);}.cls-17{fill:url(#GradientFill_2-14);}.cls-18{fill:url(#GradientFill_2-15);}.cls-19{fill:url(#GradientFill_2-16);}.cls-20{fill:url(#GradientFill_2-17);}.cls-21{fill:url(#GradientFill_2-18);}.cls-22{fill:url(#GradientFill_2-19);}.cls-23{fill:url(#GradientFill_2-20);}.cls-24{fill:url(#GradientFill_2-21);}.cls-25{fill:url(#GradientFill_2-22);}.cls-26{fill:url(#GradientFill_2-23);}.cls-27{fill:url(#GradientFill_2-24);}.cls-28{fill:url(#GradientFill_2-25);}.cls-29{fill:url(#GradientFill_2-26);}.cls-30{fill:url(#GradientFill_2-27);}.cls-31{fill:url(#GradientFill_2-28);}.cls-32{fill:url(#GradientFill_2-29);}.cls-33{fill:url(#GradientFill_2-30);}.cls-34{fill:url(#GradientFill_2-31);}.cls-35{fill:url(#GradientFill_2-32);}.cls-36{fill:url(#GradientFill_2-33);}.cls-37{fill:url(#GradientFill_2-34);}.cls-38{fill:url(#GradientFill_2-35);}.cls-39{fill:url(#GradientFill_2-36);}.cls-40{fill:url(#GradientFill_2-37);}.cls-41{fill:url(#GradientFill_2-38);}.cls-42{fill:url(#GradientFill_2-39);}.cls-43{fill:url(#GradientFill_2-40);}.cls-44{fill:url(#GradientFill_2-41);}.cls-45{fill:url(#GradientFill_2-42);}.cls-46{fill:url(#GradientFill_2-43);}.cls-47{fill:url(#GradientFill_2-44);}.cls-48{fill:url(#GradientFill_2-45);}.cls-49{fill:url(#GradientFill_2-46);}.cls-50{fill:url(#GradientFill_2-47);}.cls-51{fill:url(#GradientFill_2-48);}.cls-52{fill:url(#GradientFill_2-49);}.cls-53{fill:url(#GradientFill_2-50);}.cls-54{fill:url(#GradientFill_2-51);}.cls-55{fill:url(#GradientFill_2-52);}.cls-56{fill:url(#GradientFill_2-53);}.cls-57{fill:url(#GradientFill_2-54);}.cls-58{fill:url(#GradientFill_2-55);}.cls-59{fill:url(#GradientFill_2-56);}.cls-60{fill:url(#GradientFill_2-57);}.cls-61{fill:url(#GradientFill_2-58);}.cls-62{fill:url(#GradientFill_2-59);}.cls-63{fill:url(#GradientFill_2-60);}.cls-64{fill:url(#GradientFill_2-61);}.cls-65{fill:url(#GradientFill_2-62);}.cls-66{fill:url(#GradientFill_2-63);}.cls-67{fill:url(#GradientFill_2-64);}.cls-68{fill:url(#GradientFill_2-65);}.cls-69{fill:url(#GradientFill_2-66);}.cls-70{fill:url(#GradientFill_2-67);}.cls-71{fill:url(#GradientFill_2-68);}.cls-72{fill:url(#GradientFill_2-69);}.cls-73{fill:url(#GradientFill_2-70);}.cls-74{fill:url(#GradientFill_2-71);}.cls-75{fill:url(#GradientFill_2-72);}.cls-76{fill:url(#GradientFill_2-73);}.cls-77{fill:url(#GradientFill_2-74);}.cls-78{fill:url(#GradientFill_2-75);}.cls-79{fill:url(#GradientFill_2-76);}.cls-80{fill:url(#GradientFill_2-77);}.cls-81{fill:url(#GradientFill_2-78);}.cls-82{fill:url(#GradientFill_2-79);}.cls-83{fill:url(#GradientFill_2-80);}.cls-84{fill:url(#GradientFill_2-81);}.cls-85{fill:url(#GradientFill_2-82);}.cls-86{fill:url(#GradientFill_2-83);}.cls-87{fill:url(#GradientFill_2-84);}.cls-88{fill:url(#GradientFill_2-85);}.cls-89{fill:url(#GradientFill_2-86);}.cls-90{fill:url(#GradientFill_2-87);}.cls-91{fill:url(#GradientFill_2-88);}.cls-92{fill:url(#GradientFill_2-89);}.cls-93{fill:url(#GradientFill_2-90);}.cls-94{fill:url(#GradientFill_2-91);}.cls-95{fill:url(#GradientFill_2-92);}.cls-96{fill:url(#GradientFill_2-93);}.cls-97{fill:url(#GradientFill_2-94);}.cls-98{fill:url(#GradientFill_2-95);}.cls-99{fill:url(#GradientFill_2-96);}.cls-100{fill:url(#GradientFill_2-97);}.cls-101{fill:url(#GradientFill_2-98);}.cls-102{fill:url(#GradientFill_2-99);}.cls-103{fill:url(#GradientFill_2-100);}.cls-104{fill:url(#GradientFill_2-101);}.cls-105{fill:url(#GradientFill_2-102);}.cls-106{fill:url(#GradientFill_2-103);}.cls-107{fill:url(#GradientFill_2-104);}.cls-108{fill:url(#GradientFill_2-105);}.cls-109{fill:url(#GradientFill_2-106);}.cls-110{fill:url(#GradientFill_2-107);}.cls-111{fill:url(#GradientFill_2-108);}.cls-112{fill:url(#GradientFill_2-109);}.cls-113{fill:url(#GradientFill_2-110);}.cls-114{fill:url(#GradientFill_2-111);}.cls-115{fill:url(#GradientFill_2-112);}.cls-116{fill:url(#GradientFill_2-113);}.cls-117{fill:url(#GradientFill_2-114);}.cls-118{fill:url(#GradientFill_2-115);}.cls-119{fill:url(#GradientFill_2-116);}.cls-120{fill:url(#GradientFill_2-117);}.cls-121{fill:url(#GradientFill_2-118);}.cls-122{fill:url(#GradientFill_2-119);}.cls-123{fill:url(#GradientFill_2-120);}.cls-124{fill:url(#GradientFill_2-121);}.cls-125{fill:url(#GradientFill_2-122);}.cls-126{fill:url(#GradientFill_2-123);}.cls-127{fill:url(#GradientFill_2-124);}.cls-128{fill:url(#GradientFill_2-125);}.cls-129{fill:url(#GradientFill_2-126);}.cls-130{fill:url(#GradientFill_2-127);}.cls-131{fill:url(#GradientFill_2-128);}.cls-132{fill:url(#GradientFill_2-129);}.cls-133{fill:url(#GradientFill_2-130);}.cls-134{fill:url(#GradientFill_2-131);}.cls-135{fill:url(#GradientFill_2-132);}.cls-136{fill:url(#GradientFill_2-133);}.cls-137{fill:url(#GradientFill_2-134);}.cls-138{fill:url(#GradientFill_2-135);}.cls-139{fill:url(#GradientFill_2-136);}.cls-140{fill:url(#GradientFill_2-137);}.cls-141{fill:#213d3e;}</style><linearGradient id="GradientFill_1" x1="1000" y1="718.8" x2="1000" y2="1569.55" gradientUnits="userSpaceOnUse"><stop offset="0" stop-color="#010101"/><stop offset="1" stop-color="#31595a"/></linearGradient><linearGradient id="GradientFill_2" x1="1000" y1="1356.14" x2="1000" y2="1608.95" gradientUnits="userSpaceOnUse"><stop offset="0" stop-color="#071e1c"/><stop offset="1" stop-color="#234848"/></linearGradient><linearGradient id="GradientFill_2-2" x1="44.02" y1="1356.15" x2="44.02" y2="1608.95" xlink:href="#GradientFill_2"/><linearGradient id="GradientFill_2-3" x1="44.02" y1="1356.16" x2="44.02" y2="1608.95" xlink:href="#GradientFill_2"/><linearGradient id="GradientFill_2-4" x1="44.02" y1="1356.15" x2="44.02" y2="1608.95" xlink:href="#GradientFill_2"/><linearGradient id="GradientFill_2-5" x1="44.02" y1="1356.15" x2="44.02" y2="1608.95" xlink:href="#GradientFill_2"/><linearGradient id="GradientFill_2-6" x1="195.57" y1="1356.15" x2="195.57" y2="1608.95" xlink:href="#GradientFill_2"/><linearGradient id="GradientFill_2-7" x1="195.57" y1="1356.15" x2="195.57" y2="1608.95" xlink:href="#GradientFill_2"/><linearGradient id="GradientFill_2-8" x1="195.57" y1="1356.16" x2="195.57" y2="1608.96" xlink:href="#GradientFill_2"/><linearGradient id="GradientFill_2-9" x1="195.57" y1="1356.15" x2="195.57" y2="1608.95" xlink:href="#GradientFill_2"/><linearGradient id="GradientFill_2-10" x1="354.95" y1="1356.15" x2="354.95" y2="1608.95" xlink:href="#GradientFill_2"/><linearGradient id="GradientFill_2-11" x1="354.95" y1="1356.15" x2="354.95" y2="1608.94" xlink:href="#GradientFill_2"/><linearGradient id="GradientFill_2-12" x1="354.95" y1="1356.15" x2="354.95" y2="1608.94" xlink:href="#GradientFill_2"/><linearGradient id="GradientFill_2-13" x1="354.95" y1="1356.15" x2="354.95" y2="1608.94" xlink:href="#GradientFill_2"/><linearGradient id="GradientFill_2-14" x1="521.72" y1="1356.15" x2="521.72" y2="1608.95" xlink:href="#GradientFill_2"/><linearGradient id="GradientFill_2-15" x1="521.72" y1="1356.15" x2="521.72" y2="1608.95" xlink:href="#GradientFill_2"/><linearGradient id="GradientFill_2-16" x1="521.72" y1="1356.15" x2="521.72" y2="1608.95" xlink:href="#GradientFill_2"/><linearGradient id="GradientFill_2-17" x1="521.72" y1="1356.15" x2="521.72" y2="1608.94" xlink:href="#GradientFill_2"/><linearGradient id="GradientFill_2-18" x1="685.37" y1="1356.15" x2="685.37" y2="1608.94" xlink:href="#GradientFill_2"/><linearGradient id="GradientFill_2-19" x1="685.37" y1="1356.15" x2="685.37" y2="1608.94" xlink:href="#GradientFill_2"/><linearGradient id="GradientFill_2-20" x1="685.37" y1="1356.15" x2="685.37" y2="1608.94" xlink:href="#GradientFill_2"/><linearGradient id="GradientFill_2-21" x1="685.37" y1="1356.15" x2="685.37" y2="1608.95" xlink:href="#GradientFill_2"/><linearGradient id="GradientFill_2-22" x1="884.47" y1="1356.15" x2="884.47" y2="1608.94" xlink:href="#GradientFill_2"/><linearGradient id="GradientFill_2-23" x1="884.47" y1="1356.15" x2="884.47" y2="1608.95" xlink:href="#GradientFill_2"/><linearGradient id="GradientFill_2-24" x1="884.47" y1="1356.16" x2="884.47" y2="1608.96" xlink:href="#GradientFill_2"/><linearGradient id="GradientFill_2-25" x1="884.47" y1="1356.15" x2="884.47" y2="1608.95" xlink:href="#GradientFill_2"/><linearGradient id="GradientFill_2-26" x1="1043.85" y1="1356.15" x2="1043.85" y2="1608.95" xlink:href="#GradientFill_2"/><linearGradient id="GradientFill_2-27" x1="1043.85" y1="1356.15" x2="1043.85" y2="1608.94" xlink:href="#GradientFill_2"/><linearGradient id="GradientFill_2-28" x1="1043.85" y1="1356.15" x2="1043.85" y2="1608.94" xlink:href="#GradientFill_2"/><linearGradient id="GradientFill_2-29" x1="1043.85" y1="1356.15" x2="1043.85" y2="1608.95" xlink:href="#GradientFill_2"/><linearGradient id="GradientFill_2-30" x1="1210.62" y1="1356.15" x2="1210.62" y2="1608.95" xlink:href="#GradientFill_2"/><linearGradient id="GradientFill_2-31" x1="1210.62" y1="1356.15" x2="1210.62" y2="1608.95" xlink:href="#GradientFill_2"/><linearGradient id="GradientFill_2-32" x1="1210.62" y1="1356.15" x2="1210.62" y2="1608.95" xlink:href="#GradientFill_2"/><linearGradient id="GradientFill_2-33" x1="1210.62" y1="1356.15" x2="1210.62" y2="1608.95" xlink:href="#GradientFill_2"/><linearGradient id="GradientFill_2-34" x1="1959.08" y1="1356.14" x2="1959.08" y2="1608.95" xlink:href="#GradientFill_2"/><linearGradient id="GradientFill_2-35" x1="1959.08" y1="1356.15" x2="1959.08" y2="1608.95" xlink:href="#GradientFill_2"/><linearGradient id="GradientFill_2-36" x1="1959.08" y1="1356.15" x2="1959.08" y2="1608.95" xlink:href="#GradientFill_2"/><linearGradient id="GradientFill_2-37" x1="1959.08" y1="1356.15" x2="1959.08" y2="1608.95" xlink:href="#GradientFill_2"/><linearGradient id="GradientFill_2-38" x1="1780.97" y1="1356.15" x2="1780.97" y2="1608.95" xlink:href="#GradientFill_2"/><linearGradient id="GradientFill_2-39" x1="1780.97" y1="1356.15" x2="1780.97" y2="1608.94" xlink:href="#GradientFill_2"/><linearGradient id="GradientFill_2-40" x1="1780.97" y1="1356.15" x2="1780.97" y2="1608.95" xlink:href="#GradientFill_2"/><linearGradient id="GradientFill_2-41" x1="1780.97" y1="1356.15" x2="1780.97" y2="1608.95" xlink:href="#GradientFill_2"/><linearGradient id="GradientFill_2-42" x1="1614.2" y1="1356.15" x2="1614.2" y2="1608.95" xlink:href="#GradientFill_2"/><linearGradient id="GradientFill_2-43" x1="1614.2" y1="1356.15" x2="1614.2" y2="1608.95" xlink:href="#GradientFill_2"/><linearGradient id="GradientFill_2-44" x1="1614.2" y1="1356.15" x2="1614.2" y2="1608.94" xlink:href="#GradientFill_2"/><linearGradient id="GradientFill_2-45" x1="1614.2" y1="1356.15" x2="1614.2" y2="1608.94" xlink:href="#GradientFill_2"/><linearGradient id="GradientFill_2-46" x1="1330.34" y1="1356.15" x2="1330.34" y2="1608.95" xlink:href="#GradientFill_2"/><linearGradient id="GradientFill_2-47" x1="1330.34" y1="1356.14" x2="1330.34" y2="1608.95" xlink:href="#GradientFill_2"/><linearGradient id="GradientFill_2-48" x1="1330.34" y1="1356.15" x2="1330.34" y2="1608.94" xlink:href="#GradientFill_2"/><linearGradient id="GradientFill_2-49" x1="1330.34" y1="1356.15" x2="1330.34" y2="1608.95" xlink:href="#GradientFill_2"/><linearGradient id="GradientFill_2-50" x1="1489.4" y1="1356.15" x2="1489.4" y2="1608.95" xlink:href="#GradientFill_2"/><linearGradient id="GradientFill_2-51" x1="1489.4" y1="1356.14" x2="1489.4" y2="1608.94" xlink:href="#GradientFill_2"/><linearGradient id="GradientFill_2-52" x1="1489.4" y1="1356.15" x2="1489.4" y2="1608.95" xlink:href="#GradientFill_2"/><linearGradient id="GradientFill_2-53" x1="1489.4" y1="1356.15" x2="1489.4" y2="1608.94" xlink:href="#GradientFill_2"/><linearGradient id="GradientFill_2-54" x1="117.9" y1="1356.15" x2="117.9" y2="1608.94" xlink:href="#GradientFill_2"/><linearGradient id="GradientFill_2-55" x1="117.9" y1="1356.15" x2="117.9" y2="1608.95" xlink:href="#GradientFill_2"/><linearGradient id="GradientFill_2-56" x1="117.9" y1="1356.15" x2="117.9" y2="1608.95" xlink:href="#GradientFill_2"/><linearGradient id="GradientFill_2-57" x1="117.9" y1="1356.15" x2="117.9" y2="1608.95" xlink:href="#GradientFill_2"/><linearGradient id="GradientFill_2-58" x1="244.62" y1="1356.15" x2="244.62" y2="1608.95" xlink:href="#GradientFill_2"/><linearGradient id="GradientFill_2-59" x1="244.62" y1="1356.15" x2="244.62" y2="1608.95" xlink:href="#GradientFill_2"/><linearGradient id="GradientFill_2-60" x1="244.62" y1="1356.15" x2="244.62" y2="1608.95" xlink:href="#GradientFill_2"/><linearGradient id="GradientFill_2-61" x1="244.62" y1="1356.15" x2="244.62" y2="1608.95" xlink:href="#GradientFill_2"/><linearGradient id="GradientFill_2-62" x1="299.32" y1="1356.15" x2="299.32" y2="1608.95" xlink:href="#GradientFill_2"/><linearGradient id="GradientFill_2-63" x1="299.32" y1="1356.15" x2="299.32" y2="1608.94" xlink:href="#GradientFill_2"/><linearGradient id="GradientFill_2-64" x1="299.32" y1="1356.15" x2="299.32" y2="1608.95" xlink:href="#GradientFill_2"/><linearGradient id="GradientFill_2-65" x1="299.32" y1="1356.15" x2="299.32" y2="1608.94" xlink:href="#GradientFill_2"/><linearGradient id="GradientFill_2-66" x1="419.71" y1="1356.15" x2="419.71" y2="1608.94" xlink:href="#GradientFill_2"/><linearGradient id="GradientFill_2-67" x1="419.71" y1="1356.15" x2="419.71" y2="1608.95" xlink:href="#GradientFill_2"/><linearGradient id="GradientFill_2-68" x1="419.71" y1="1356.15" x2="419.71" y2="1608.95" xlink:href="#GradientFill_2"/><linearGradient id="GradientFill_2-69" x1="419.71" y1="1356.15" x2="419.71" y2="1608.95" xlink:href="#GradientFill_2"/><linearGradient id="GradientFill_2-70" x1="467.52" y1="1356.15" x2="467.52" y2="1608.94" xlink:href="#GradientFill_2"/><linearGradient id="GradientFill_2-71" x1="467.52" y1="1356.15" x2="467.52" y2="1608.95" xlink:href="#GradientFill_2"/><linearGradient id="GradientFill_2-72" x1="467.52" y1="1356.15" x2="467.52" y2="1608.95" xlink:href="#GradientFill_2"/><linearGradient id="GradientFill_2-73" x1="467.52" y1="1356.15" x2="467.52" y2="1608.95" xlink:href="#GradientFill_2"/><linearGradient id="GradientFill_2-74" x1="568.51" y1="1356.15" x2="568.51" y2="1608.94" xlink:href="#GradientFill_2"/><linearGradient id="GradientFill_2-75" x1="568.51" y1="1356.15" x2="568.51" y2="1608.95" xlink:href="#GradientFill_2"/><linearGradient id="GradientFill_2-76" x1="568.51" y1="1356.15" x2="568.51" y2="1608.95" xlink:href="#GradientFill_2"/><linearGradient id="GradientFill_2-77" x1="568.51" y1="1356.15" x2="568.51" y2="1608.94" xlink:href="#GradientFill_2"/><linearGradient id="GradientFill_2-78" x1="613.28" y1="1356.15" x2="613.28" y2="1608.94" xlink:href="#GradientFill_2"/><linearGradient id="GradientFill_2-79" x1="613.28" y1="1356.15" x2="613.28" y2="1608.95" xlink:href="#GradientFill_2"/><linearGradient id="GradientFill_2-80" x1="613.28" y1="1356.15" x2="613.28" y2="1608.95" xlink:href="#GradientFill_2"/><linearGradient id="GradientFill_2-81" x1="613.28" y1="1356.15" x2="613.28" y2="1608.94" xlink:href="#GradientFill_2"/><linearGradient id="GradientFill_2-82" x1="749.34" y1="1356.15" x2="749.34" y2="1608.95" xlink:href="#GradientFill_2"/><linearGradient id="GradientFill_2-83" x1="749.34" y1="1356.15" x2="749.34" y2="1608.94" xlink:href="#GradientFill_2"/><linearGradient id="GradientFill_2-84" x1="749.34" y1="1356.15" x2="749.34" y2="1608.95" xlink:href="#GradientFill_2"/><linearGradient id="GradientFill_2-85" x1="749.34" y1="1356.15" x2="749.34" y2="1608.94" xlink:href="#GradientFill_2"/><linearGradient id="GradientFill_2-86" x1="805.46" y1="1356.15" x2="805.46" y2="1608.95" xlink:href="#GradientFill_2"/><linearGradient id="GradientFill_2-87" x1="805.46" y1="1356.15" x2="805.46" y2="1608.94" xlink:href="#GradientFill_2"/><linearGradient id="GradientFill_2-88" x1="805.46" y1="1356.15" x2="805.46" y2="1608.95" xlink:href="#GradientFill_2"/><linearGradient id="GradientFill_2-89" x1="805.46" y1="1356.15" x2="805.46" y2="1608.95" xlink:href="#GradientFill_2"/><linearGradient id="GradientFill_2-90" x1="964.59" y1="1356.15" x2="964.59" y2="1608.95" xlink:href="#GradientFill_2"/><linearGradient id="GradientFill_2-91" x1="964.59" y1="1356.16" x2="964.59" y2="1608.95" xlink:href="#GradientFill_2"/><linearGradient id="GradientFill_2-92" x1="964.59" y1="1356.15" x2="964.59" y2="1608.95" xlink:href="#GradientFill_2"/><linearGradient id="GradientFill_2-93" x1="964.59" y1="1356.15" x2="964.59" y2="1608.95" xlink:href="#GradientFill_2"/><linearGradient id="GradientFill_2-94" x1="1123.71" y1="1356.15" x2="1123.71" y2="1608.94" xlink:href="#GradientFill_2"/><linearGradient id="GradientFill_2-95" x1="1123.71" y1="1356.15" x2="1123.71" y2="1608.95" xlink:href="#GradientFill_2"/><linearGradient id="GradientFill_2-96" x1="1123.71" y1="1356.15" x2="1123.71" y2="1608.95" xlink:href="#GradientFill_2"/><linearGradient id="GradientFill_2-97" x1="1123.71" y1="1356.15" x2="1123.71" y2="1608.95" xlink:href="#GradientFill_2"/><linearGradient id="GradientFill_2-98" x1="1169.51" y1="1356.15" x2="1169.51" y2="1608.95" xlink:href="#GradientFill_2"/><linearGradient id="GradientFill_2-99" x1="1169.51" y1="1356.15" x2="1169.51" y2="1608.95" xlink:href="#GradientFill_2"/><linearGradient id="GradientFill_2-100" x1="1169.51" y1="1356.15" x2="1169.51" y2="1608.95" xlink:href="#GradientFill_2"/><linearGradient id="GradientFill_2-101" x1="1169.51" y1="1356.15" x2="1169.51" y2="1608.94" xlink:href="#GradientFill_2"/><linearGradient id="GradientFill_2-102" x1="1262.15" y1="1356.15" x2="1262.15" y2="1608.95" xlink:href="#GradientFill_2"/><linearGradient id="GradientFill_2-103" x1="1262.15" y1="1356.15" x2="1262.15" y2="1608.94" xlink:href="#GradientFill_2"/><linearGradient id="GradientFill_2-104" x1="1262.15" y1="1356.15" x2="1262.15" y2="1608.95" xlink:href="#GradientFill_2"/><linearGradient id="GradientFill_2-105" x1="1262.15" y1="1356.15" x2="1262.15" y2="1608.94" xlink:href="#GradientFill_2"/><linearGradient id="GradientFill_2-106" x1="1387.09" y1="1356.15" x2="1387.09" y2="1608.94" xlink:href="#GradientFill_2"/><linearGradient id="GradientFill_2-107" x1="1387.09" y1="1356.15" x2="1387.09" y2="1608.95" xlink:href="#GradientFill_2"/><linearGradient id="GradientFill_2-108" x1="1387.09" y1="1356.15" x2="1387.09" y2="1608.95" xlink:href="#GradientFill_2"/><linearGradient id="GradientFill_2-109" x1="1387.09" y1="1356.15" x2="1387.09" y2="1608.94" xlink:href="#GradientFill_2"/><linearGradient id="GradientFill_2-110" x1="1438.32" y1="1356.15" x2="1438.32" y2="1608.94" xlink:href="#GradientFill_2"/><linearGradient id="GradientFill_2-111" x1="1438.32" y1="1356.15" x2="1438.32" y2="1608.94" xlink:href="#GradientFill_2"/><linearGradient id="GradientFill_2-112" x1="1438.32" y1="1356.15" x2="1438.32" y2="1608.94" xlink:href="#GradientFill_2"/><linearGradient id="GradientFill_2-113" x1="1438.32" y1="1356.15" x2="1438.32" y2="1608.95" xlink:href="#GradientFill_2"/><linearGradient id="GradientFill_2-114" x1="1559.42" y1="1356.15" x2="1559.42" y2="1608.95" xlink:href="#GradientFill_2"/><linearGradient id="GradientFill_2-115" x1="1559.42" y1="1356.15" x2="1559.42" y2="1608.95" xlink:href="#GradientFill_2"/><linearGradient id="GradientFill_2-116" x1="1559.42" y1="1356.15" x2="1559.42" y2="1608.95" xlink:href="#GradientFill_2"/><linearGradient id="GradientFill_2-117" x1="1559.42" y1="1356.15" x2="1559.42" y2="1608.94" xlink:href="#GradientFill_2"/><linearGradient id="GradientFill_2-118" x1="1671.18" y1="1356.15" x2="1671.18" y2="1608.95" xlink:href="#GradientFill_2"/><linearGradient id="GradientFill_2-119" x1="1671.18" y1="1356.15" x2="1671.18" y2="1608.94" xlink:href="#GradientFill_2"/><linearGradient id="GradientFill_2-120" x1="1671.18" y1="1356.15" x2="1671.18" y2="1608.94" xlink:href="#GradientFill_2"/><linearGradient id="GradientFill_2-121" x1="1671.18" y1="1356.15" x2="1671.18" y2="1608.94" xlink:href="#GradientFill_2"/><linearGradient id="GradientFill_2-122" x1="1726.21" y1="1356.15" x2="1726.21" y2="1608.95" xlink:href="#GradientFill_2"/><linearGradient id="GradientFill_2-123" x1="1726.21" y1="1356.15" x2="1726.21" y2="1608.95" xlink:href="#GradientFill_2"/><linearGradient id="GradientFill_2-124" x1="1726.21" y1="1356.15" x2="1726.21" y2="1608.94" xlink:href="#GradientFill_2"/><linearGradient id="GradientFill_2-125" x1="1726.21" y1="1356.15" x2="1726.21" y2="1608.94" xlink:href="#GradientFill_2"/><linearGradient id="GradientFill_2-126" x1="1839.61" y1="1356.15" x2="1839.61" y2="1608.94" xlink:href="#GradientFill_2"/><linearGradient id="GradientFill_2-127" x1="1839.61" y1="1356.15" x2="1839.61" y2="1608.95" xlink:href="#GradientFill_2"/><linearGradient id="GradientFill_2-128" x1="1839.61" y1="1356.15" x2="1839.61" y2="1608.95" xlink:href="#GradientFill_2"/><linearGradient id="GradientFill_2-129" x1="1839.61" y1="1356.15" x2="1839.61" y2="1608.94" xlink:href="#GradientFill_2"/><linearGradient id="GradientFill_2-130" x1="1881.27" y1="1356.15" x2="1881.27" y2="1608.95" xlink:href="#GradientFill_2"/><linearGradient id="GradientFill_2-131" x1="1881.27" y1="1356.15" x2="1881.27" y2="1608.95" xlink:href="#GradientFill_2"/><linearGradient id="GradientFill_2-132" x1="1881.27" y1="1356.15" x2="1881.27" y2="1608.95" xlink:href="#GradientFill_2"/><linearGradient id="GradientFill_2-133" x1="1881.27" y1="1356.15" x2="1881.27" y2="1608.95" xlink:href="#GradientFill_2"/><linearGradient id="GradientFill_2-134" x1="1916.15" y1="1356.15" x2="1916.15" y2="1608.94" xlink:href="#GradientFill_2"/><linearGradient id="GradientFill_2-135" x1="1916.15" y1="1356.15" x2="1916.15" y2="1608.95" xlink:href="#GradientFill_2"/><linearGradient id="GradientFill_2-136" x1="1916.15" y1="1356.15" x2="1916.15" y2="1608.95" xlink:href="#GradientFill_2"/><linearGradient id="GradientFill_2-137" x1="1916.15" y1="1356.15" x2="1916.15" y2="1608.94" xlink:href="#GradientFill_2"/></defs><rect class="cls-1" x="-18.41" y="-18.51" width="2036.82" height="1737.02"/><path class="cls-2" d="M2018.41,873.74V789.23c-26.73-1.35-52.31-4.4-74.76-9.86-61-14.82-265.73-126.8-480.71-138.19S1092.43,772.31,971,797c-106.2,21.63-107.73,23.27-225.85,15.15C639.77,805,533.25,766.93,431.45,743c-153.76-36.14-224.08-35.83-370.56,19.91-37,14.08-59.25,21-79.3,24.2V955.58c96.65-1.48,198.93-13.81,285.79-20C425,924.49,697,977.47,790.58,985.45c366.17,31.24,452.07-91.18,711.33-91.18,132,0,356.18,50.7,516.5,91.6Z"/><path class="cls-3" d="M267.38,838.65c-86.86,6.13-189.14,18.47-285.79,20v859.91H2018.41V888.89c-160.32-40.9-384.47-91.6-516.5-91.6-259.26,0-345.16,122.41-711.33,91.18C697,880.49,425,827.51,267.38,838.65Z"/><path class="cls-4" d="M2018.41,1366.22V1295.6c-177.08,5.62-334.26,104.25-631.64,108.9C910.15,1412,541.86,1270.58-18.41,1270.25V1718.5H67.9l1.59-5.77,2.83,5.77H423.23a19,19,0,0,1,36.57-1.24l.34,1.24h532.5a98.23,98.23,0,0,1,2.68-10.65c1.83,4,3.72,7.53,5.46,10.65h539a100.76,100.76,0,0,1,2.69-10.65c1.82,4,3.71,7.53,5.46,10.65h470.51V1606.37C2018.41,1567.27,2016.73,1392,2018.41,1366.22Z"/><path class="cls-5" d="M44,1146.88c6.11,29.61,16.49,56.73,43,74.45-28.67,7.09-57.33,6.49-86,0C22.24,1200.41,33.85,1174.58,44,1146.88Z"/><path class="cls-6" d="M44,1158.33c7,34.11,19,65.37,49.54,85.78-33,8.17-66,7.48-99.07,0C18.93,1220,32.3,1190.25,44,1158.33Z"/><path class="cls-7" d="M44,1166.91c8.31,40.28,22.44,77.18,58.49,101.28-39,9.65-78,8.83-117,0C14.4,1239.74,30.18,1204.6,44,1166.91Z"/><path class="cls-8" d="M44,1137.81c5,24.38,13.58,46.71,35.4,61.3-23.6,5.83-47.19,5.34-70.79,0C26.09,1181.88,35.65,1160.62,44,1137.81Z"/><path class="cls-9" d="M195.57,1122c6.11,37.81,16.5,72.46,43,95.09-28.66,9-57.32,8.28-86,0C173.8,1190.32,185.4,1157.33,195.57,1122Z"/><path class="cls-10" d="M195.57,1136.57c7,43.57,19,83.48,49.54,109.56-33,10.43-66.05,9.54-99.07,0C170.48,1215.34,183.85,1177.34,195.57,1136.57Z"/><path class="cls-11" d="M195.57,1147.54c8.31,51.43,22.44,98.56,58.49,129.34-39,12.32-78,11.27-117,0C166,1240.54,181.73,1195.66,195.57,1147.54Z"/><path class="cls-12" d="M195.57,1110.37c5,31.13,13.58,59.65,35.4,78.28-23.6,7.46-47.19,6.82-70.79,0C177.64,1166.66,187.2,1139.5,195.57,1110.37Z"/><path class="cls-13" d="M355,1162.37c6.11,32.17,16.49,61.64,43,80.88-28.66,7.71-57.32,7-86,0C333.17,1220.53,344.78,1192.47,355,1162.37Z"/><path class="cls-14" d="M355,1174.81c7,37.06,19,71,49.54,93.19-33,8.87-66.05,8.12-99.07,0C329.86,1241.82,343.23,1209.48,355,1174.81Z"/><path class="cls-15" d="M355,1184.14c8.31,43.75,22.43,83.84,58.48,110-39,10.48-78,9.58-117,0C325.33,1263.25,341.11,1225.08,355,1184.14Z"/><path class="cls-16" d="M355,1152.52c5,26.48,13.58,50.74,35.4,66.59-23.6,6.34-47.2,5.8-70.79,0C337,1200.4,346.57,1177.3,355,1152.52Z"/><path class="cls-17" d="M521.72,1221.74c4.45,26.51,12,50.79,31.34,66.65-20.89,6.35-41.78,5.81-62.68,0C505.84,1269.66,514.3,1246.54,521.72,1221.74Z"/><path class="cls-18" d="M521.72,1232c5.13,30.54,13.85,58.51,36.11,76.79-24.07,7.31-48.14,6.69-72.22,0C503.43,1287.2,513.17,1260.56,521.72,1232Z"/><path class="cls-19" d="M521.72,1239.68c6,36,16.35,69.08,42.63,90.65-28.42,8.64-56.84,7.9-85.26,0C500.12,1304.86,511.63,1273.41,521.72,1239.68Z"/><path class="cls-20" d="M521.72,1213.63c3.66,21.82,9.9,41.81,25.8,54.86-17.2,5.23-34.4,4.78-51.6,0C508.65,1253.08,515.61,1234,521.72,1213.63Z"/><path class="cls-21" d="M685.37,1210c5.86,30.91,15.84,59.22,41.31,77.72-27.54,7.4-55.08,6.77-82.62,0C664.44,1265.87,675.59,1238.91,685.37,1210Z"/><path class="cls-22" d="M685.37,1221.94c6.76,35.61,18.25,68.24,47.59,89.55-31.73,8.52-63.46,7.8-95.19,0C661.26,1286.33,674.1,1255.26,685.37,1221.94Z"/><path class="cls-23" d="M685.37,1230.9c8,42,21.55,80.56,56.19,105.72-37.46,10.07-74.92,9.21-112.39,0C656.9,1306.92,672.07,1270.24,685.37,1230.9Z"/><path class="cls-24" d="M685.37,1200.53c4.83,25.44,13,48.75,34,64-22.68,6.09-45.35,5.57-68,0C668.14,1246.53,677.32,1224.34,685.37,1200.53Z"/><path class="cls-25" d="M884.47,1221.44c6.11,37.81,16.49,72.45,43,95.08-28.66,9.06-57.32,8.29-86,0C862.69,1289.81,874.3,1256.82,884.47,1221.44Z"/><path class="cls-26" d="M884.47,1236.06c7,43.56,19,83.48,49.54,109.55-33,10.44-66,9.55-99.07,0C859.38,1314.83,872.75,1276.82,884.47,1236.06Z"/><path class="cls-27" d="M884.47,1247c8.31,51.44,22.43,98.57,58.48,129.35-39,12.32-78,11.27-117,0C854.84,1340,870.63,1295.15,884.47,1247Z"/><path class="cls-28" d="M884.47,1209.86c5,31.13,13.58,59.65,35.39,78.28-23.59,7.45-47.19,6.82-70.78,0C866.54,1266.14,876.09,1239,884.47,1209.86Z"/><path class="cls-29" d="M1043.85,1261.86c6.1,32.16,16.49,61.63,43,80.88-28.66,7.7-57.32,7-86,0C1022.07,1320,1033.67,1292,1043.85,1261.86Z"/><path class="cls-30" d="M1043.85,1274.3c7,37.06,19,71,49.53,93.18-33,8.88-66,8.12-99.07,0C1018.75,1341.3,1032.12,1309,1043.85,1274.3Z"/><path class="cls-31" d="M1043.85,1283.62c8.3,43.76,22.43,83.84,58.48,110-39,10.48-78,9.59-117,0C1014.22,1362.73,1030,1324.56,1043.85,1283.62Z"/><path class="cls-32" d="M1043.85,1252c5,26.48,13.57,50.74,35.39,66.59-23.59,6.34-47.19,5.8-70.79,0C1025.92,1299.89,1035.47,1276.79,1043.85,1252Z"/><path class="cls-33" d="M1210.62,1334.47c4.45,23.45,12,44.93,31.34,59-20.9,5.61-41.79,5.14-62.68,0C1194.74,1376.86,1203.2,1356.41,1210.62,1334.47Z"/><path class="cls-34" d="M1210.62,1343.53c5.13,27,13.85,51.77,36.11,67.94-24.08,6.47-48.15,5.92-72.22,0C1192.32,1392.38,1202.07,1368.81,1210.62,1343.53Z"/><path class="cls-35" d="M1210.62,1350.33c6.05,31.9,16.35,61.12,42.63,80.21-28.42,7.63-56.84,7-85.27,0C1189,1408,1200.53,1380.18,1210.62,1350.33Z"/><path class="cls-36" d="M1210.62,1327.29c3.66,19.3,9.89,37,25.8,48.54-17.2,4.62-34.4,4.23-51.6,0C1197.55,1362.19,1204.51,1345.35,1210.62,1327.29Z"/><path class="cls-37" d="M1959.08,1141.51c-6.1,37.81-16.49,72.46-43,95.08,28.66,9.06,57.32,8.29,86,0C1980.86,1209.88,1969.26,1176.89,1959.08,1141.51Z"/><path class="cls-38" d="M1959.08,1156.13c-7,43.57-19,83.48-49.53,109.55,33,10.44,66,9.55,99.07,0C1984.18,1234.9,1970.81,1196.89,1959.08,1156.13Z"/><path class="cls-39" d="M1959.08,1167.1c-8.3,51.43-22.43,98.56-58.48,129.34,39,12.32,78,11.27,117,0C1988.71,1260.1,1972.92,1215.22,1959.08,1167.1Z"/><path class="cls-40" d="M1959.08,1129.93c-5,31.13-13.57,59.65-35.39,78.28,23.59,7.46,47.19,6.82,70.79,0C1977,1186.22,1967.46,1159.06,1959.08,1129.93Z"/><path class="cls-41" d="M1781,1213.64c-6.11,32.16-16.49,61.63-43,80.88,28.66,7.7,57.33,7,86,0C1802.75,1271.79,1791.14,1243.73,1781,1213.64Z"/><path class="cls-42" d="M1781,1226.07c-7,37.06-19,71-49.54,93.19,33,8.88,66,8.12,99.07,0C1806.06,1293.08,1792.69,1260.75,1781,1226.07Z"/><path class="cls-43" d="M1781,1235.4c-8.31,43.76-22.44,83.84-58.49,110,39,10.48,78,9.59,117,0C1810.59,1314.51,1794.81,1276.34,1781,1235.4Z"/><path class="cls-44" d="M1781,1203.79c-5,26.48-13.58,50.74-35.4,66.58,23.6,6.35,47.19,5.81,70.79,0C1798.9,1251.67,1789.34,1228.57,1781,1203.79Z"/><path class="cls-45" d="M1614.2,1286.25c-4.45,23.44-12,44.93-31.34,59,20.89,5.61,41.78,5.13,62.68,0C1630.07,1328.64,1621.61,1308.19,1614.2,1286.25Z"/><path class="cls-46" d="M1614.2,1295.31c-5.13,27-13.85,51.77-36.11,67.93,24.07,6.47,48.14,5.92,72.22,0C1632.49,1344.16,1622.74,1320.59,1614.2,1295.31Z"/><path class="cls-47" d="M1614.2,1302.11c-6.06,31.9-16.36,61.12-42.64,80.2,28.43,7.64,56.85,7,85.27,0C1635.79,1359.78,1624.29,1332,1614.2,1302.11Z"/><path class="cls-48" d="M1614.2,1279.07c-3.67,19.3-9.9,37-25.8,48.54,17.2,4.62,34.4,4.23,51.6,0C1627.27,1314,1620.3,1297.13,1614.2,1279.07Z"/><path class="cls-49" d="M1330.34,1240.43c6.11,41.24,16.49,79,43,103.69-28.66,9.88-57.32,9-86,0C1308.56,1315,1320.17,1279,1330.34,1240.43Z"/><path class="cls-50" d="M1330.34,1256.38c7,47.51,19,91,49.54,119.47-33,11.38-66.05,10.41-99.07,0C1305.25,1342.28,1318.62,1300.83,1330.34,1256.38Z"/><path class="cls-51" d="M1330.34,1268.33c8.31,56.1,22.43,107.49,58.48,141.05-39,13.44-78,12.3-117,0C1300.72,1369.75,1316.5,1320.82,1330.34,1268.33Z"/><path class="cls-52" d="M1330.34,1227.81c5,33.94,13.58,65,35.4,85.36-23.6,8.13-47.2,7.44-70.79,0C1312.41,1289.19,1322,1259.57,1330.34,1227.81Z"/><path class="cls-53" d="M1489.4,1272.64c6.11,32.16,16.49,61.63,43,80.88-28.67,7.7-57.33,7-86,0C1467.62,1330.79,1479.23,1302.73,1489.4,1272.64Z"/><path class="cls-54" d="M1489.4,1285.08c7,37.05,19,71,49.54,93.18-33,8.88-66,8.12-99.07,0C1464.31,1352.08,1477.68,1319.75,1489.4,1285.08Z"/><path class="cls-55" d="M1489.4,1294.4c8.31,43.76,22.44,83.84,58.48,110-39,10.48-78,9.59-117,0C1459.78,1373.51,1475.56,1335.34,1489.4,1294.4Z"/><path class="cls-56" d="M1489.4,1262.79c5,26.48,13.58,50.74,35.4,66.59-23.6,6.34-47.19,5.8-70.79,0C1471.47,1310.67,1481,1287.57,1489.4,1262.79Z"/><path class="cls-57" d="M117.9,1192.52c4.45,23.45,12,44.93,31.34,59-20.89,5.62-41.78,5.14-62.68,0C102,1234.92,110.48,1214.46,117.9,1192.52Z"/><path class="cls-58" d="M117.9,1201.59c5.13,27,13.85,51.77,36.11,67.93-24.07,6.47-48.14,5.92-72.22,0C99.61,1250.43,109.36,1226.87,117.9,1201.59Z"/><path class="cls-59" d="M117.9,1208.39c6.06,31.89,16.35,61.11,42.63,80.2-28.42,7.64-56.84,7-85.26,0C96.3,1266.06,107.81,1238.23,117.9,1208.39Z"/><path class="cls-60" d="M117.9,1185.34c3.67,19.31,9.9,37,25.8,48.54-17.2,4.63-34.4,4.23-51.6,0C104.83,1220.24,111.79,1203.41,117.9,1185.34Z"/><path class="cls-61" d="M244.62,1208.43c4,20.84,10.69,39.94,27.86,52.41-18.57,5-37.14,4.56-55.71,0C230.51,1246.11,238,1227.93,244.62,1208.43Z"/><path class="cls-62" d="M244.62,1216.49c4.56,24,12.31,46,32.1,60.38-21.4,5.75-42.79,5.26-64.19,0C228.37,1259.9,237,1239,244.62,1216.49Z"/><path class="cls-63" d="M244.62,1222.54c5.38,28.34,14.54,54.31,37.89,71.28-25.26,6.79-50.52,6.21-75.78,0C225.43,1273.79,235.66,1249.06,244.62,1222.54Z"/><path class="cls-64" d="M244.62,1202.05c3.26,17.16,8.8,32.88,22.93,43.14-15.28,4.11-30.57,3.76-45.86,0C233,1233.07,239.2,1218.11,244.62,1202.05Z"/><path class="cls-65" d="M299.32,1200c3.95,20.84,10.68,39.94,27.85,52.41-18.57,5-37.14,4.56-55.71,0C285.21,1237.63,292.73,1219.45,299.32,1200Z"/><path class="cls-66" d="M299.32,1208c4.56,24,12.31,46,32.09,60.38-21.39,5.75-42.79,5.26-64.18,0C283.06,1251.42,291.72,1230.48,299.32,1208Z"/><path class="cls-67" d="M299.32,1214.05c5.38,28.35,14.53,54.32,37.89,71.29-25.26,6.79-50.52,6.21-75.78,0C280.12,1265.31,290.35,1240.58,299.32,1214.05Z"/><path class="cls-68" d="M299.32,1193.57c3.25,17.16,8.79,32.88,22.93,43.14-15.29,4.11-30.57,3.76-45.86,0C287.7,1224.59,293.89,1209.63,299.32,1193.57Z"/><path class="cls-69" d="M419.71,1242c3.46,18.22,9.34,34.91,24.35,45.81-16.23,4.36-32.46,4-48.7,0C407.38,1274.94,414,1259.05,419.71,1242Z"/><path class="cls-70" d="M419.71,1249.05c4,21,10.76,40.21,28.06,52.77-18.71,5-37.41,4.6-56.11,0C405.5,1287,413.07,1268.68,419.71,1249.05Z"/><path class="cls-71" d="M419.71,1254.33c4.71,24.78,12.71,47.48,33.12,62.31-22.08,5.93-44.16,5.43-66.24,0C402.93,1299.13,411.87,1277.51,419.71,1254.33Z"/><path class="cls-72" d="M419.71,1236.42c2.85,15,7.69,28.74,20.05,37.71-13.36,3.6-26.73,3.29-40.09,0C409.56,1263.54,415,1250.46,419.71,1236.42Z"/><path class="cls-73" d="M467.52,1234.59c3.46,18.22,9.34,34.9,24.35,45.8-16.23,4.37-32.46,4-48.69,0C455.19,1267.52,461.76,1251.63,467.52,1234.59Z"/><path class="cls-74" d="M467.52,1241.63c4,21,10.76,40.22,28.06,52.78-18.71,5-37.41,4.6-56.11,0C453.31,1279.58,460.88,1261.27,467.52,1241.63Z"/><path class="cls-75" d="M467.52,1246.91c4.71,24.78,12.71,47.49,33.12,62.31-22.08,5.94-44.16,5.43-66.24,0C450.75,1291.72,459.68,1270.1,467.52,1246.91Z"/><path class="cls-76" d="M467.52,1229c2.85,15,7.69,28.74,20.05,37.71-13.36,3.59-26.73,3.29-40.09,0C457.37,1256.13,462.78,1243,467.52,1229Z"/><path class="cls-77" d="M568.51,1256.14c3.45,18.22,9.33,34.91,24.34,45.81-16.23,4.36-32.46,4-48.69,0C556.17,1289.08,562.74,1273.19,568.51,1256.14Z"/><path class="cls-78" d="M568.51,1263.19c4,21,10.76,40.21,28,52.77-18.7,5-37.4,4.6-56.11,0C554.29,1301.13,561.87,1282.82,568.51,1263.19Z"/><path class="cls-79" d="M568.51,1268.47c4.7,24.78,12.7,47.48,33.12,62.31-22.08,5.93-44.16,5.43-66.25,0C551.73,1313.27,560.67,1291.65,568.51,1268.47Z"/><path class="cls-80" d="M568.51,1250.56c2.84,15,7.68,28.74,20,37.71-13.36,3.6-26.73,3.29-40.09,0C558.35,1277.68,563.76,1264.6,568.51,1250.56Z"/><path class="cls-81" d="M613.28,1258.26c3.46,18.22,9.34,34.91,24.35,45.81-16.23,4.36-32.46,4-48.69,0C601,1291.2,607.52,1275.31,613.28,1258.26Z"/><path class="cls-82" d="M613.28,1265.3c4,21,10.76,40.22,28.06,52.78-18.7,5-37.41,4.6-56.11,0C599.07,1303.25,606.64,1284.94,613.28,1265.3Z"/><path class="cls-83" d="M613.28,1270.59c4.71,24.78,12.71,47.48,33.12,62.3-22.08,5.94-44.15,5.43-66.24,0C596.51,1315.39,605.45,1293.77,613.28,1270.59Z"/><path class="cls-84" d="M613.28,1252.68c2.85,15,7.69,28.74,20.05,37.71-13.36,3.59-26.73,3.29-40.09,0C603.13,1279.8,608.54,1266.72,613.28,1252.68Z"/><path class="cls-85" d="M749.34,1271.79c3.46,18.21,9.34,34.9,24.35,45.8-16.23,4.37-32.46,4-48.7,0C737,1304.72,743.58,1288.83,749.34,1271.79Z"/><path class="cls-86" d="M749.34,1278.83c4,21,10.76,40.22,28,52.78-18.7,5-37.4,4.59-56.1,0C735.13,1316.78,742.7,1298.47,749.34,1278.83Z"/><path class="cls-87" d="M749.34,1284.11c4.7,24.78,12.71,47.48,33.12,62.31-22.08,5.94-44.16,5.43-66.24,0C732.56,1328.92,741.5,1307.3,749.34,1284.11Z"/><path class="cls-88" d="M749.34,1266.21c2.85,15,7.69,28.74,20,37.71-13.37,3.59-26.73,3.29-40.09,0C739.19,1293.32,744.6,1280.24,749.34,1266.21Z"/><path class="cls-89" d="M805.46,1255c4.13,25.89,11.17,49.61,29.11,65.11-19.4,6.2-38.81,5.67-58.23,0C790.71,1301.76,798.57,1279.18,805.46,1255Z"/><path class="cls-90" d="M805.46,1265c4.76,29.83,12.87,57.17,33.54,75-22.36,7.14-44.72,6.53-67.09,0C788.47,1318.9,797.52,1292.87,805.46,1265Z"/><path class="cls-91" d="M805.46,1272.47c5.62,35.22,15.19,67.49,39.6,88.57-26.4,8.43-52.8,7.72-79.2,0C785.4,1336.15,796.09,1305.43,805.46,1272.47Z"/><path class="cls-92" d="M805.46,1247c3.4,21.32,9.19,40.85,24,53.6-16,5.11-32,4.67-47.94,0C793.32,1285.56,799.79,1267,805.46,1247Z"/><path class="cls-93" d="M964.59,1274.65c4.13,25.89,11.16,49.61,29.11,65.11-19.41,6.2-38.82,5.67-58.23,0C949.84,1321.47,957.7,1298.88,964.59,1274.65Z"/><path class="cls-94" d="M964.59,1284.66c4.76,29.83,12.86,57.17,33.54,75-22.36,7.14-44.72,6.54-67.09,0C947.59,1338.6,956.65,1312.57,964.59,1284.66Z"/><path class="cls-95" d="M964.59,1292.17c5.62,35.22,15.19,67.49,39.6,88.57-26.4,8.43-52.8,7.71-79.21,0C944.52,1355.85,955.21,1325.13,964.59,1292.17Z"/><path class="cls-96" d="M964.59,1266.72c3.4,21.32,9.19,40.85,24,53.6-16,5.11-31.95,4.67-47.93,0C952.44,1305.26,958.91,1286.67,964.59,1266.72Z"/><path class="cls-97" d="M1123.71,1291.31c4.14,25.9,11.17,49.62,29.12,65.11-19.41,6.21-38.82,5.68-58.23,0C1109,1338.13,1116.82,1315.54,1123.71,1291.31Z"/><path class="cls-98" d="M1123.71,1301.33c4.77,29.83,12.87,57.16,33.55,75-22.37,7.15-44.73,6.54-67.09,0C1106.72,1355.27,1115.77,1329.24,1123.71,1301.33Z"/><path class="cls-99" d="M1123.71,1308.83c5.63,35.23,15.19,67.5,39.61,88.57-26.41,8.44-52.81,7.72-79.21,0C1103.65,1372.52,1114.34,1341.79,1123.71,1308.83Z"/><path class="cls-100" d="M1123.71,1283.39c3.41,21.31,9.2,40.84,24,53.6-16,5.1-32,4.67-47.94,0C1111.57,1321.93,1118,1303.33,1123.71,1283.39Z"/><path class="cls-101" d="M1169.51,1335.29c2.61,16.36,7.06,31.34,18.4,41.13-12.27,3.92-24.53,3.59-36.79,0C1160.19,1364.86,1165.16,1350.59,1169.51,1335.29Z"/><path class="cls-102" d="M1169.51,1341.61c3,18.85,8.13,36.12,21.19,47.4-14.12,4.51-28.25,4.13-42.38,0C1158.78,1375.69,1164.5,1359.25,1169.51,1341.61Z"/><path class="cls-103" d="M1169.51,1346.36c3.55,22.25,9.6,42.64,25,56-16.68,5.33-33.36,4.88-50,0C1156.84,1386.59,1163.59,1367.18,1169.51,1346.36Z"/><path class="cls-104" d="M1169.51,1330.28c2.15,13.47,5.81,25.8,15.14,33.86-10.09,3.23-20.19,2.95-30.28,0C1161.84,1354.63,1165.93,1342.88,1169.51,1330.28Z"/><path class="cls-105" d="M1262.15,1325.26c3.11,19.46,8.4,37.29,21.89,48.94-14.59,4.66-29.18,4.26-43.77,0C1251.07,1360.45,1257,1343.47,1262.15,1325.26Z"/><path class="cls-106" d="M1262.15,1332.79c3.58,22.42,9.67,43,25.21,56.38-16.8,5.37-33.61,4.91-50.42,0C1249.38,1373.33,1256.19,1353.77,1262.15,1332.79Z"/><path class="cls-107" d="M1262.15,1338.43c4.23,26.47,11.42,50.72,29.77,66.56-19.84,6.34-39.69,5.8-59.53,0C1247.08,1386.29,1255.11,1363.2,1262.15,1338.43Z"/><path class="cls-108" d="M1262.15,1319.31c2.56,16,6.91,30.69,18,40.28-12,3.84-24,3.51-36,0C1253,1348.27,1257.89,1334.3,1262.15,1319.31Z"/><path class="cls-109" d="M1387.09,1325.64c4.45,23.44,12,44.93,31.34,59-20.89,5.61-41.79,5.13-62.68,0C1371.21,1368,1379.67,1347.57,1387.09,1325.64Z"/><path class="cls-110" d="M1387.09,1334.7c5.13,27,13.85,51.77,36.11,67.93-24.07,6.47-48.15,5.92-72.22,0C1368.8,1383.55,1378.54,1360,1387.09,1334.7Z"/><path class="cls-111" d="M1387.09,1341.5c6.05,31.9,16.35,61.12,42.63,80.2-28.42,7.64-56.84,7-85.26,0C1365.49,1399.17,1377,1371.35,1387.09,1341.5Z"/><path class="cls-112" d="M1387.09,1318.46c3.66,19.3,9.9,37,25.8,48.54-17.2,4.62-34.4,4.23-51.6,0C1374,1353.36,1381,1336.52,1387.09,1318.46Z"/><path class="cls-113" d="M1438.32,1326.93c3.1,19.46,8.39,37.29,21.88,48.93-14.59,4.66-29.18,4.26-43.76,0C1427.23,1362.11,1433.14,1345.14,1438.32,1326.93Z"/><path class="cls-114" d="M1438.32,1334.45c3.58,22.42,9.67,43,25.21,56.38-16.81,5.37-33.62,4.91-50.42,0C1425.54,1375,1432.35,1355.43,1438.32,1334.45Z"/><path class="cls-115" d="M1438.32,1340.1c4.22,26.47,11.41,50.72,29.76,66.56-19.84,6.34-39.68,5.8-59.53,0C1423.24,1388,1431.27,1364.86,1438.32,1340.1Z"/><path class="cls-116" d="M1438.32,1321c2.55,16,6.91,30.7,18,40.28-12,3.84-24,3.51-36,0C1429.19,1349.94,1434.05,1336,1438.32,1321Z"/><path class="cls-117" d="M1559.42,1322.47c3.11,18.31,8.39,35.09,21.88,46-14.59,4.39-29.17,4-43.76,0C1548.33,1355.58,1554.24,1339.6,1559.42,1322.47Z"/><path class="cls-118" d="M1559.42,1329.55c3.58,21.1,9.67,40.43,25.21,53.06-16.81,5.05-33.61,4.62-50.42,0C1546.65,1367.7,1553.45,1349.29,1559.42,1329.55Z"/><path class="cls-119" d="M1559.42,1334.86c4.23,24.91,11.42,47.74,29.76,62.64-19.84,6-39.68,5.46-59.53,0C1544.34,1379.9,1552.37,1358.17,1559.42,1334.86Z"/><path class="cls-120" d="M1559.42,1316.86c2.56,15.08,6.91,28.89,18,37.91-12,3.61-24,3.31-36,0C1550.29,1344.12,1555.16,1331,1559.42,1316.86Z"/><path class="cls-121" d="M1671.18,1280.45c3.11,23.24,8.4,44.53,21.88,58.44-14.58,5.56-29.17,5.09-43.76,0C1660.1,1322.47,1666,1302.19,1671.18,1280.45Z"/><path class="cls-122" d="M1671.18,1289.43c3.58,26.78,9.67,51.31,25.21,67.33-16.8,6.42-33.61,5.87-50.42,0C1658.41,1337.85,1665.22,1314.49,1671.18,1289.43Z"/><path class="cls-123" d="M1671.18,1296.17c4.23,31.61,11.42,60.58,29.77,79.49-19.84,7.57-39.69,6.93-59.53,0C1656.11,1353.33,1664.14,1325.75,1671.18,1296.17Z"/><path class="cls-124" d="M1671.18,1273.33c2.56,19.13,6.91,36.66,18,48.11-12,4.58-24,4.19-36,0C1662.06,1307.92,1666.92,1291.23,1671.18,1273.33Z"/><path class="cls-125" d="M1726.21,1256.81c3.59,26.86,9.7,51.47,25.29,67.54-16.86,6.44-33.72,5.89-50.58,0C1713.4,1305.37,1720.23,1281.94,1726.21,1256.81Z"/><path class="cls-126" d="M1726.21,1267.19c4.14,31,11.18,59.31,29.14,77.83-19.42,7.41-38.85,6.78-58.28,0C1711.45,1323.15,1719.32,1296.15,1726.21,1267.19Z"/><path class="cls-127" d="M1726.21,1275c4.89,36.54,13.2,70,34.41,91.88-22.94,8.76-45.87,8-68.81,0C1708.78,1341.05,1718.07,1309.17,1726.21,1275Z"/><path class="cls-128" d="M1726.21,1248.58c3,22.12,8,42.38,20.82,55.61-13.88,5.3-27.76,4.84-41.64,0C1715.67,1288.57,1721.28,1269.27,1726.21,1248.58Z"/><path class="cls-129" d="M1839.61,1237.05c3.11,23.24,8.4,44.53,21.88,58.44-14.58,5.56-29.17,5.09-43.76,0C1828.53,1279.07,1834.43,1258.8,1839.61,1237.05Z"/><path class="cls-130" d="M1839.61,1246c3.58,26.77,9.67,51.3,25.21,67.33-16.8,6.41-33.61,5.86-50.42,0C1826.84,1294.45,1833.65,1271.09,1839.61,1246Z"/><path class="cls-131" d="M1839.61,1252.78c4.23,31.61,11.42,60.57,29.77,79.49-19.84,7.57-39.69,6.92-59.53,0C1824.54,1309.93,1832.57,1282.36,1839.61,1252.78Z"/><path class="cls-132" d="M1839.61,1229.94c2.56,19.13,6.91,36.66,18,48.1-12,4.59-24,4.2-36,0C1830.49,1264.53,1835.35,1247.84,1839.61,1229.94Z"/><path class="cls-133" d="M1881.27,1199.82c3.86,28.82,10.41,55.23,27.14,72.48-18.09,6.91-36.18,6.32-54.28,0C1867.52,1251.94,1874.85,1226.79,1881.27,1199.82Z"/><path class="cls-134" d="M1881.27,1211c4.44,33.22,12,63.65,31.27,83.52-20.84,8-41.69,7.28-62.54,0C1865.43,1271,1873.87,1242,1881.27,1211Z"/><path class="cls-135" d="M1881.27,1219.32c5.24,39.21,14.16,75.14,36.92,98.61-24.61,9.39-49.22,8.59-73.84,0C1862.57,1290.22,1872.53,1256,1881.27,1219.32Z"/><path class="cls-136" d="M1881.27,1191c3.17,23.73,8.57,45.47,22.35,59.68-14.9,5.68-29.8,5.2-44.69,0C1870,1233.9,1876,1213.2,1881.27,1191Z"/><path class="cls-137" d="M1916.15,1244.24c2.36,17.66,6.37,33.83,16.62,44.39-11.08,4.23-22.16,3.87-33.24,0C1907.73,1276.16,1912.21,1260.76,1916.15,1244.24Z"/><path class="cls-138" d="M1916.15,1251.07c2.72,20.34,7.34,39,19.15,51.14-12.77,4.87-25.53,4.46-38.3,0C1906.45,1287.84,1911.62,1270.1,1916.15,1251.07Z"/><path class="cls-139" d="M1916.15,1256.19c3.21,24,8.67,46,22.61,60.38-15.08,5.75-30.15,5.26-45.22,0C1904.69,1299.6,1910.8,1278.66,1916.15,1256.19Z"/><path class="cls-140" d="M1916.15,1238.84c1.94,14.53,5.25,27.85,13.68,36.54-9.12,3.48-18.24,3.19-27.37,0C1909.22,1265.12,1912.91,1252.44,1916.15,1238.84Z"/><path class="cls-141" d="M901.08,1473.81c-249-42.6-489.71-97.15-919.49-103.16V1718.5H2018.41V1423C1564.69,1446.46,1365,1553.18,901.08,1473.81Z"/></svg>