<svg xmlns="http://www.w3.org/2000/svg" viewBox="0 0 216.17 92.46"><defs><style>.cls-1{fill:#252227;}.cls-1,.cls-2,.cls-3,.cls-4{fill-rule:evenodd;}.cls-2{fill:#73677d;}.cls-3{fill:#85768f;}.cls-4{fill:#a398ac;}</style></defs><g id="Layer_2" data-name="Layer 2"><g id="modal"><path class="cls-1" d="M14.68,0h188l13.46,13.46V79L202.71,92.46H13.46L0,79V13.46L13.46,0Zm185.6,5.87H15.89l-10,10V76.56l10,10H200.28l10-10V15.89Z"/><polygon class="cls-2" points="14.68 2.94 201.49 2.94 213.23 14.68 213.23 77.78 201.49 89.52 14.68 89.52 2.94 77.78 2.94 14.68 14.68 2.94"/><polygon class="cls-3" points="19.66 9.78 196.5 9.78 206.39 19.66 206.39 72.79 196.5 82.68 19.66 82.68 9.78 72.79 9.78 19.66 19.66 9.78"/><polygon class="cls-1" points="2.94 57.62 2.94 51.6 9.78 51.6 16.56 47.2 9.78 55.13 2.94 57.62"/><polygon class="cls-4" points="12.17 21.6 22.01 11.85 194.84 11.85 204.1 20.36 206.39 39.47 206.39 19.66 196.5 9.78 19.66 9.78 9.78 19.66 9.78 39.47 12.17 21.6"/><polygon class="cls-3" points="2.94 14.68 2.94 34.22 4.45 15.97 16.2 4.22 200.59 4.22 211.76 15.39 213.23 35.36 213.23 14.68 201.49 2.94 14.68 2.94 2.94 14.68"/><polygon class="cls-1" points="192.72 2.94 185.27 2.94 181.83 8.22 192.72 2.94"/><polygon class="cls-1" points="190.18 89.52 183.49 89.52 182.82 82.68 188.94 71.67 185.31 60.3 193.04 70.42 206.39 72.79 213.23 77.78 208.54 82.47 204.06 75.13 191.9 72.91 186.26 82.68 190.18 89.52"/><polygon class="cls-4" points="191.9 72.91 186.72 81.89 192.88 74.07 202.99 74.93 191.9 72.91"/><polygon class="cls-1" points="51.83 2.94 47.95 2.94 50.45 7.47 59.59 9.31 61.9 11.85 60.38 16.95 63.94 11.85 62.69 9.25 69.66 6.48 70.68 2.94 67.29 2.94 66.57 5.63 61.5 7.67 52.68 5.96 51.83 2.94"/></g></g></svg>