<svg xmlns="http://www.w3.org/2000/svg" viewBox="0 0 220 200"><defs><style>.cls-1{fill:#252227;}.cls-1,.cls-2,.cls-3,.cls-4,.cls-5,.cls-6{fill-rule:evenodd;}.cls-2{fill:#73677d;}.cls-3{fill:#85768f;}.cls-4{fill:#a398ac;}.cls-5{fill:#514858;}.cls-6{fill:#2d2530;}</style></defs><g id="modal"><path class="cls-1" d="M16.33,3.77h188l13.46,13.46V82.77L204.36,96.23H15.11L1.65,82.77V17.23L15.11,3.77Zm185.6,5.88H17.54l-10,10V80.34l10,10H201.93l10-10V19.66Z"/><polygon class="cls-2" points="16.32 6.71 203.14 6.71 214.88 18.45 214.88 81.55 203.14 93.29 16.32 93.29 4.58 81.55 4.58 18.45 16.32 6.71"/><polygon class="cls-3" points="21.31 13.55 198.15 13.55 208.04 23.43 208.04 76.56 198.15 86.45 21.31 86.45 11.43 76.56 11.43 23.43 21.31 13.55"/><polygon class="cls-1" points="4.58 61.39 4.58 55.37 11.43 55.37 18.21 50.98 11.43 58.91 4.58 61.39"/><polygon class="cls-4" points="13.82 25.37 23.66 15.63 196.49 15.63 205.75 24.13 208.04 43.24 208.04 23.43 198.15 13.55 21.31 13.55 11.43 23.43 11.43 43.24 13.82 25.37"/><polygon class="cls-3" points="4.58 18.45 4.58 37.99 6.1 19.74 17.85 7.99 202.24 7.99 213.41 19.17 214.88 39.14 214.88 18.45 203.14 6.71 16.32 6.71 4.58 18.45"/><polygon class="cls-1" points="194.37 6.71 186.92 6.71 183.48 12 194.37 6.71"/><polygon class="cls-1" points="191.83 93.29 185.14 93.29 184.47 86.45 190.59 75.44 186.96 64.07 194.69 74.19 208.04 76.56 214.88 81.55 210.19 86.25 205.71 78.9 193.55 76.68 187.91 86.45 191.83 93.29"/><polygon class="cls-4" points="193.55 76.68 188.37 85.66 194.53 77.84 204.64 78.71 193.55 76.68"/><polygon class="cls-1" points="53.48 6.71 49.59 6.71 52.09 11.24 61.24 13.08 63.55 15.63 62.03 20.72 65.58 15.63 64.33 13.02 71.31 10.25 72.33 6.71 68.94 6.71 68.22 9.4 63.15 11.44 54.33 9.73 53.48 6.71"/><path class="cls-1" d="M16.59,103.77h188l13.46,13.46v65.54l-13.46,13.46H15.38L1.92,182.77V117.23l13.46-13.46Zm185.6,5.88H17.81l-10,10v60.68l10,10H202.19l10-10V119.66Z"/><polygon class="cls-2" points="16.59 106.71 203.41 106.71 215.15 118.45 215.15 181.55 203.41 193.29 16.59 193.29 4.85 181.55 4.85 118.45 16.59 106.71"/><polygon class="cls-5" points="21.58 113.55 198.42 113.55 208.31 123.44 208.31 176.56 198.42 186.45 21.58 186.45 11.7 176.56 11.7 123.44 21.58 113.55"/><polygon class="cls-1" points="4.85 161.39 4.85 155.37 11.7 155.37 18.47 150.97 11.7 158.91 4.85 161.39"/><polygon class="cls-6" points="14.09 125.37 23.93 115.63 196.75 115.63 206.02 124.13 208.31 143.24 208.31 123.43 198.42 113.55 21.58 113.55 11.7 123.43 11.7 143.24 14.09 125.37"/><polygon class="cls-3" points="4.85 118.45 4.85 137.99 6.37 119.74 18.12 107.99 202.5 107.99 213.68 119.17 215.15 139.14 215.15 118.45 203.41 106.71 16.59 106.71 4.85 118.45"/><polygon class="cls-1" points="194.64 106.71 187.19 106.71 183.75 112 194.64 106.71"/><polygon class="cls-1" points="192.09 193.29 185.41 193.29 184.74 186.45 190.85 175.44 187.22 164.07 194.96 174.19 208.31 176.56 215.15 181.55 210.45 186.25 205.97 178.9 193.81 176.68 188.18 186.45 192.09 193.29"/><polygon class="cls-1" points="53.74 106.71 49.86 106.71 52.36 111.24 61.51 113.08 63.81 115.63 62.3 120.72 65.85 115.63 64.6 113.02 71.58 110.25 72.6 106.71 69.21 106.71 68.48 109.4 63.42 111.44 54.6 109.73 53.74 106.71"/></g></svg>