<svg id="back" xmlns="http://www.w3.org/2000/svg" viewBox="0 0 74.33 96.29"><defs><style>.cls-1{fill:#252227;}.cls-1,.cls-2,.cls-3,.cls-4,.cls-5,.cls-6{fill-rule:evenodd;}.cls-2{fill:#73677d;}.cls-3{fill:#85768f;}.cls-4{fill:#a398ac;}.cls-5{fill:#62576a;}.cls-6{fill:#514858;}</style></defs><path class="cls-1" d="M14.73,8h48l6.83,6.84V81l-6.83,6.84H14L7.21,81V14.85L14.05,8Zm46.66,3.32h-46l-4.89,4.89V79.64l4.89,4.89h46l4.89-4.89V16.22Z"/><polygon class="cls-2" points="14.73 9.68 62.08 9.68 67.94 15.54 67.94 80.33 62.08 86.19 14.73 86.19 8.87 80.33 8.87 15.54 14.73 9.68"/><polygon class="cls-3" points="17.22 13.09 59.59 13.09 64.52 18.03 64.52 77.83 59.59 82.77 17.22 82.77 12.29 77.83 12.29 18.03 17.22 13.09"/><polygon class="cls-1" points="8.87 66.43 8.87 63.42 12.29 63.42 15.67 61.23 12.29 65.19 8.87 66.43"/><polygon class="cls-4" points="13.48 18.99 18.4 14.13 58.76 14.13 63.38 18.37 64.52 27.91 64.52 18.02 59.59 13.09 17.22 13.09 12.29 18.02 12.29 27.91 13.48 18.99"/><polygon class="cls-3" points="8.87 15.54 8.87 25.29 9.63 16.18 15.49 10.31 61.63 10.31 67.21 15.89 67.94 25.86 67.94 15.54 62.08 9.67 14.73 9.67 8.87 15.54"/><polygon class="cls-1" points="57.7 9.67 53.98 9.67 52.26 12.31 57.7 9.67"/><polygon class="cls-5" points="19.57 15.98 57.24 15.98 61.52 20.26 61.52 54.26 57.24 58.53 19.57 58.53 15.29 54.26 15.29 20.26 19.57 15.98"/><polygon class="cls-6" points="19.57 19.63 57.24 19.63 61.52 23.91 61.52 20.26 57.24 15.98 19.57 15.98 15.29 20.26 15.29 23.91 19.57 19.63"/><polygon class="cls-4" points="57.24 58.53 19.57 58.53 15.29 54.26 15.29 55.24 18.42 58.37 19.11 59.05 19.57 59.52 57.24 59.52 61.52 55.24 61.52 54.26 57.24 58.53"/><polygon class="cls-5" points="19.57 61.59 57.24 61.59 61.52 65.87 61.52 75.05 57.24 79.33 19.57 79.33 15.29 75.05 15.29 65.87 19.57 61.59"/><polygon class="cls-6" points="19.57 65.24 57.24 65.24 61.52 69.52 61.52 65.87 57.24 61.59 19.57 61.59 15.29 65.87 15.29 69.52 19.57 65.24"/><polygon class="cls-4" points="57.24 79.33 19.57 79.33 15.29 75.06 15.29 76.04 18.42 79.16 19.11 79.85 19.57 80.31 57.24 80.31 61.52 76.04 61.52 75.06 57.24 79.33"/></svg>