<svg id="back" xmlns="http://www.w3.org/2000/svg" viewBox="0 0 400 286.99"><defs><style>.cls-1{fill:#252227;}.cls-1,.cls-2,.cls-3,.cls-4,.cls-6,.cls-8,.cls-9{fill-rule:evenodd;}.cls-2{fill:#85768f;}.cls-3{fill:#514858;}.cls-4{fill:#62576a;}.cls-5,.cls-6{fill:#a398ac;}.cls-7,.cls-8{fill:#2d2530;}.cls-10,.cls-9{fill:#524358;}</style></defs><path class="cls-1" d="M41.68,14.09H356.17v2.45a24.31,24.31,0,0,0,24.31,24.3h2.44V271.62q-185.22,0-370.44,0V40.84h2.45a24.31,24.31,0,0,0,24.3-24.3V14.09ZM351.38,19H44A29.2,29.2,0,0,1,17.37,45.63v221.1H378V45.63A29.2,29.2,0,0,1,351.38,19Z"/><path class="cls-2" d="M41.68,16.54H353.73a26.74,26.74,0,0,0,26.75,26.74V269.17H14.93V43.28A26.75,26.75,0,0,0,41.68,16.54Z"/><path class="cls-3" d="M52.23,32.46h291C343.18,46,353.6,57,366.46,57V246.25H28.94V57C41.8,57,52.23,46,52.23,32.46Z"/><path class="cls-4" d="M57.73,44.24H337.67c0,12.69,9.62,23,21.48,23v179H36.25v-179C48.12,67.22,57.73,56.93,57.73,44.24Z"/><rect class="cls-5" x="28.94" y="246.25" width="337.52" height="5.57"/><path class="cls-6" d="M378.22,266.94h-361V45.23A26.32,26.32,0,0,0,43.38,18.77H352a26.32,26.32,0,0,0,26.19,26.46V266.94ZM353.73,16.54h-312A26.75,26.75,0,0,1,14.93,43.28V269.17H380.48V43.28A26.74,26.74,0,0,1,353.73,16.54Z"/><polygon class="cls-1" points="334.26 16.54 330.52 16.54 329.09 18.77 312.05 25.62 291.51 24.11 285.46 18.77 285.46 16.54 282.36 16.54 283.39 18.77 290.64 24.98 288.96 30.63 291.99 25.38 312.37 27.29 331.79 18.77 334.26 16.54"/><polygon class="cls-1" points="57.24 191.06 36.25 190.03 28.94 181.11 20.14 178.88 28.94 183.26 36.25 193.13 57.24 191.06"/><polygon class="cls-1" points="380.48 74.38 380.48 72.15 378.22 72.15 372.7 75.7 367.88 83.22 366.46 83.89 359.15 82.58 352.88 81.86 339.9 87.84 353.2 83.06 359.15 83.86 366.46 85.69 368.88 84.73 373.58 92.45 378.22 96.91 380.48 98.9 380.48 96.04 378.22 95.24 374.45 91.18 370.07 83.86 373.98 76.69 378.22 73.59 380.48 74.38"/><polygon class="cls-1" points="356.46 269.17 353.27 269.17 353.83 266.94 345.79 256.25 356.46 266.94 356.46 269.17"/><polygon class="cls-1" points="77.13 60.22 82.54 44.24 76.01 32.46 79.67 23.44 78.24 32.46 86.04 44.24 77.13 60.22"/><polygon class="cls-6" points="350.55 265.53 350.02 266.94 353.83 266.94 345.79 256.25 350.55 265.53"/><polygon class="cls-6" points="375.31 77.93 378.22 76.5 378.22 73.59 373.98 76.69 370.07 83.86 375.31 77.93"/><polygon class="cls-6" points="373.58 92.45 368.88 84.73 366.46 85.69 366.46 87.08 368.22 86.37 372.6 94.09 378.22 99.9 378.22 96.91 373.58 92.45"/><polygon class="cls-6" points="312.67 28.49 336.79 18.77 331.79 18.77 312.37 27.29 291.99 25.38 288.96 30.63 292.84 26.66 312.67 28.49"/><polygon class="cls-6" points="290.64 24.98 283.39 18.77 278.99 18.77 288.94 24.91 289.8 27.81 290.64 24.98"/><polygon class="cls-6" points="28.94 183.26 20.14 178.88 28.94 185.54 28.94 183.26"/><polygon class="cls-2" points="353.02 84.54 359.15 85.33 359.15 83.86 353.2 83.06 339.9 87.84 353.02 84.54"/><polygon class="cls-2" points="36.25 195.53 57.24 191.06 36.25 193.13 36.25 195.53"/><circle class="cls-7" cx="51.4" cy="80.1" r="5.09"/><path class="cls-8" d="M123.68,77.55a3.51,3.51,0,1,1-3.5,3.51A3.51,3.51,0,0,1,123.68,77.55Z"/><path class="cls-8" d="M103.78,206a3.5,3.5,0,1,1-3.5,3.5A3.5,3.5,0,0,1,103.78,206Z"/><path class="cls-8" d="M213.47,69.28a5.41,5.41,0,1,1-5.41,5.41A5.42,5.42,0,0,1,213.47,69.28Z"/><path class="cls-8" d="M322.65,208.18a2.72,2.72,0,1,1-2.72,2.71A2.71,2.71,0,0,1,322.65,208.18Z"/><path class="cls-8" d="M302.31,68a1.91,1.91,0,1,1-1.91,1.91A1.91,1.91,0,0,1,302.31,68Z"/><circle class="cls-7" cx="313.78" cy="98.57" r="3.18"/><path class="cls-8" d="M269.52,106.85a1,1,0,1,1-1,1A1,1,0,0,1,269.52,106.85Z"/><path class="cls-8" d="M158.07,119.59a1,1,0,1,1-1,1A.94.94,0,0,1,158.07,119.59Z"/><path class="cls-8" d="M74,120.86A4.14,4.14,0,1,1,69.87,125,4.14,4.14,0,0,1,74,120.86Z"/><path class="cls-8" d="M93.53,215.84a2.27,2.27,0,1,1-2.26,2.26A2.26,2.26,0,0,1,93.53,215.84Z"/><path class="cls-8" d="M103.3,94.11a3.51,3.51,0,1,1-3.5,3.5A3.5,3.5,0,0,1,103.3,94.11Z"/><path class="cls-8" d="M173,55.9a2.55,2.55,0,1,1-2.55,2.55A2.55,2.55,0,0,1,173,55.9Z"/><path class="cls-9" d="M97.88,24.94a2,2,0,1,1-2,2A2,2,0,0,1,97.88,24.94Z"/><path class="cls-9" d="M132,22.55a2,2,0,1,1-2,2A2,2,0,0,1,132,22.55Z"/><path class="cls-9" d="M174.78,21.27a2.63,2.63,0,1,1-2.63,2.63A2.63,2.63,0,0,1,174.78,21.27Z"/><path class="cls-9" d="M239.58,24.3a2.31,2.31,0,1,1-2.31,2.31A2.3,2.3,0,0,1,239.58,24.3Z"/><path class="cls-9" d="M261.39,24.62a.72.72,0,1,1-.71.71A.71.71,0,0,1,261.39,24.62Z"/><path class="cls-9" d="M355.84,42A1.87,1.87,0,1,1,354,43.84,1.87,1.87,0,0,1,355.84,42Z"/><path class="cls-9" d="M368.94,48.42a1.83,1.83,0,1,1-1.83,1.83A1.83,1.83,0,0,1,368.94,48.42Z"/><path class="cls-9" d="M350.19,37.91a.92.92,0,1,1-.91.91A.92.92,0,0,1,350.19,37.91Z"/><path class="cls-9" d="M372.56,121.73a2.43,2.43,0,1,1-2.42,2.43A2.43,2.43,0,0,1,372.56,121.73Z"/><path class="cls-9" d="M372.24,111.78a1.16,1.16,0,1,1-1.15,1.16A1.16,1.16,0,0,1,372.24,111.78Z"/><path class="cls-9" d="M38.78,257a4.18,4.18,0,1,1-4.18,4.18A4.18,4.18,0,0,1,38.78,257Z"/><path class="cls-9" d="M55.61,257.67a2.47,2.47,0,1,1-2.46,2.46A2.46,2.46,0,0,1,55.61,257.67Z"/><circle class="cls-10" cx="74.96" cy="258.14" r="1.35"/><path class="cls-9" d="M22.74,254a1.92,1.92,0,1,1-1.91,1.91A1.92,1.92,0,0,1,22.74,254Z"/><path class="cls-9" d="M21.7,64.65a2.15,2.15,0,1,1-2.15,2.15A2.15,2.15,0,0,1,21.7,64.65Z"/><path class="cls-9" d="M27.27,52.08a1.83,1.83,0,1,1-1.83,1.83A1.83,1.83,0,0,1,27.27,52.08Z"/></svg>