<svg id="back" xmlns="http://www.w3.org/2000/svg" viewBox="0 0 400 234.34"><defs><style>.cls-1{fill:#252227;}.cls-1,.cls-11,.cls-2,.cls-3,.cls-4,.cls-6,.cls-8,.cls-9{fill-rule:evenodd;}.cls-2{fill:#85768f;}.cls-3{fill:#514858;}.cls-4{fill:#62576a;}.cls-5,.cls-6{fill:#a398ac;}.cls-7,.cls-8{fill:#2d2530;}.cls-10,.cls-9{fill:#524358;}.cls-11{fill:#73677d;}</style></defs><path class="cls-1" d="M41.68,20H356.17v2.45a24.31,24.31,0,0,0,24.31,24.3h2.44v177q-185.22.06-370.44,0v-177h2.45a24.31,24.31,0,0,0,24.3-24.3V20Zm309.7,4.9H44A29.2,29.2,0,0,1,17.37,51.54V218.86H378V51.54A29.2,29.2,0,0,1,351.38,24.9Z"/><path class="cls-2" d="M41.68,22.45H353.73A26.75,26.75,0,0,0,380.48,49.2V221.31H14.93V49.2A26.75,26.75,0,0,0,41.68,22.45Z"/><path class="cls-3" d="M52.23,38.37h291C343.18,52,353.6,63,366.46,63V198.38H28.94V63C41.8,63,52.23,52,52.23,38.37Z"/><path class="cls-4" d="M57.73,50.15H337.67c0,12.69,9.62,23,21.48,23V198.38H36.25V73.13C48.12,73.13,57.73,62.84,57.73,50.15Z"/><rect class="cls-5" x="28.94" y="198.38" width="337.52" height="5.57"/><path class="cls-6" d="M378.22,219.07h-361V51.15A26.33,26.33,0,0,0,43.38,24.68H352a26.33,26.33,0,0,0,26.19,26.47V219.07ZM353.73,22.45h-312A26.75,26.75,0,0,1,14.93,49.2V221.31H380.48V49.2A26.75,26.75,0,0,1,353.73,22.45Z"/><polygon class="cls-1" points="334.26 22.45 330.52 22.45 329.09 24.68 312.05 31.53 291.51 30.02 285.46 24.68 285.46 22.45 282.36 22.45 283.39 24.68 290.64 30.89 288.96 36.55 291.99 31.29 312.37 33.2 331.79 24.68 334.26 22.45"/><polygon class="cls-1" points="57.24 196.97 36.25 195.94 28.94 187.03 20.14 184.8 28.94 189.17 36.25 199.04 57.24 196.97"/><polygon class="cls-1" points="380.48 80.3 380.48 78.07 378.22 78.07 372.7 81.61 367.88 89.13 366.46 89.81 359.15 88.49 352.88 87.78 339.9 93.75 353.2 88.97 359.15 89.77 366.46 91.6 368.88 90.64 373.58 98.37 378.22 102.82 380.48 104.81 380.48 101.95 378.22 101.15 374.45 97.09 370.07 89.77 373.98 82.6 378.22 79.5 380.48 80.3"/><polygon class="cls-1" points="356.46 221.31 353.27 221.31 353.83 219.07 345.79 208.39 356.46 219.07 356.46 221.31"/><polygon class="cls-1" points="77.13 66.13 82.54 50.15 76.01 38.37 79.67 29.35 78.24 38.37 86.04 50.15 77.13 66.13"/><polygon class="cls-6" points="350.55 217.66 350.02 219.07 353.83 219.07 345.79 208.39 350.55 217.66"/><polygon class="cls-6" points="375.31 83.84 378.22 82.41 378.22 79.5 373.98 82.6 370.07 89.77 375.31 83.84"/><polygon class="cls-6" points="373.58 98.37 368.88 90.64 366.46 91.6 366.46 93 368.22 92.28 372.6 100 378.22 105.81 378.22 102.82 373.58 98.37"/><polygon class="cls-6" points="312.67 34.41 336.79 24.68 331.79 24.68 312.37 33.2 291.99 31.29 288.96 36.55 292.84 32.58 312.67 34.41"/><polygon class="cls-6" points="290.64 30.89 283.39 24.68 278.99 24.68 288.94 30.82 289.8 33.72 290.64 30.89"/><polygon class="cls-6" points="28.94 189.17 20.14 184.8 28.94 191.45 28.94 189.17"/><polygon class="cls-2" points="353.02 90.45 359.15 91.25 359.15 89.77 353.2 88.97 339.9 93.75 353.02 90.45"/><polygon class="cls-2" points="36.25 201.44 57.24 196.97 36.25 199.04 36.25 201.44"/><circle class="cls-7" cx="51.4" cy="86.01" r="5.09"/><path class="cls-8" d="M123.68,83.47a3.5,3.5,0,1,1-3.5,3.5A3.5,3.5,0,0,1,123.68,83.47Z"/><path class="cls-8" d="M103.78,211.86a3.5,3.5,0,1,1-3.5,3.5A3.51,3.51,0,0,1,103.78,211.86Z"/><path class="cls-8" d="M213.47,75.19a5.41,5.41,0,1,1-5.41,5.41A5.42,5.42,0,0,1,213.47,75.19Z"/><path class="cls-8" d="M322.65,214.09a2.72,2.72,0,1,1-2.72,2.72A2.72,2.72,0,0,1,322.65,214.09Z"/><path class="cls-8" d="M302.31,73.91a1.92,1.92,0,1,1-1.91,1.91A1.91,1.91,0,0,1,302.31,73.91Z"/><circle class="cls-7" cx="313.78" cy="104.48" r="3.18"/><path class="cls-8" d="M269.52,112.76a1,1,0,1,1-1,1A1,1,0,0,1,269.52,112.76Z"/><path class="cls-8" d="M158.07,125.5a1,1,0,0,1,0,1.91,1,1,0,1,1,0-1.91Z"/><path class="cls-8" d="M74,126.77a4.14,4.14,0,1,1-4.14,4.14A4.15,4.15,0,0,1,74,126.77Z"/><path class="cls-8" d="M93.53,221.75A2.27,2.27,0,1,1,91.27,224,2.27,2.27,0,0,1,93.53,221.75Z"/><path class="cls-8" d="M103.3,100a3.51,3.51,0,1,1-3.5,3.51A3.5,3.5,0,0,1,103.3,100Z"/><path class="cls-8" d="M173,61.81a2.55,2.55,0,1,1-2.55,2.55A2.55,2.55,0,0,1,173,61.81Z"/><path class="cls-9" d="M97.88,30.85a2,2,0,1,1-2,2A2,2,0,0,1,97.88,30.85Z"/><path class="cls-9" d="M132,28.46a2,2,0,1,1-2,2A2,2,0,0,1,132,28.46Z"/><path class="cls-9" d="M174.78,27.19a2.63,2.63,0,1,1-2.63,2.62A2.62,2.62,0,0,1,174.78,27.19Z"/><path class="cls-9" d="M239.58,30.21a2.31,2.31,0,1,1-2.31,2.31A2.3,2.3,0,0,1,239.58,30.21Z"/><path class="cls-9" d="M261.39,30.53a.72.72,0,1,1-.71.71A.71.71,0,0,1,261.39,30.53Z"/><path class="cls-9" d="M355.84,47.88A1.87,1.87,0,1,1,354,49.75,1.87,1.87,0,0,1,355.84,47.88Z"/><path class="cls-9" d="M368.94,54.33a1.83,1.83,0,1,1-1.83,1.83A1.83,1.83,0,0,1,368.94,54.33Z"/><path class="cls-9" d="M350.19,43.82a.92.92,0,1,1-.91.92A.92.92,0,0,1,350.19,43.82Z"/><path class="cls-9" d="M372.56,127.65a2.43,2.43,0,1,1-2.42,2.43A2.43,2.43,0,0,1,372.56,127.65Z"/><path class="cls-9" d="M372.24,117.7a1.15,1.15,0,1,1-1.15,1.15A1.15,1.15,0,0,1,372.24,117.7Z"/><path class="cls-9" d="M38.78,209.16a4.18,4.18,0,1,1-4.18,4.18A4.18,4.18,0,0,1,38.78,209.16Z"/><path class="cls-9" d="M55.61,209.8a2.47,2.47,0,1,1-2.46,2.47A2.47,2.47,0,0,1,55.61,209.8Z"/><circle class="cls-10" cx="74.96" cy="210.28" r="1.35"/><path class="cls-9" d="M22.74,206.14a1.91,1.91,0,1,1-1.91,1.91A1.91,1.91,0,0,1,22.74,206.14Z"/><path class="cls-9" d="M21.7,70.57a2.15,2.15,0,1,1-2.15,2.15A2.15,2.15,0,0,1,21.7,70.57Z"/><path class="cls-9" d="M27.27,58a1.83,1.83,0,1,1-1.83,1.83A1.83,1.83,0,0,1,27.27,58Z"/><polygon class="cls-3" points="324.26 10.55 70.12 10.55 69.33 10.55 60.57 18.44 60.57 50.52 69.33 58.41 324.26 58.41 333.03 50.52 333.03 18.44 324.26 10.55"/><path class="cls-1" d="M70.12,4.23H324.26L333,12.12V44.2l-8.77,7.89H69.33L60.57,44.2V12.12l8.76-7.89ZM322.68,7.67H70.91l-6.52,5.87V42.78l6.52,5.87H322.68l6.52-5.87V13.54Z"/><polygon class="cls-11" points="70.12 5.95 323.47 5.95 331.12 12.83 331.12 43.49 323.47 50.37 70.12 50.37 62.48 43.49 62.48 12.83 70.12 5.95"/><polygon class="cls-2" points="73.37 9.96 320.23 9.96 326.66 15.75 326.66 40.57 320.23 46.36 73.37 46.36 66.93 40.57 66.93 15.75 73.37 9.96"/><polygon class="cls-1" points="62.48 31.68 62.48 28.16 66.93 28.16 71.34 25.58 66.93 30.23 62.48 31.68"/><polygon class="cls-6" points="68.49 16.89 74.9 11.18 319.14 11.18 325.17 16.16 326.66 21.05 326.66 15.75 320.22 9.96 73.37 9.96 66.93 15.75 66.93 21.05 68.49 16.89"/><polygon class="cls-2" points="62.48 12.83 62.48 17.98 63.47 13.59 71.11 6.7 322.88 6.7 330.16 13.25 331.11 18.65 331.11 12.83 323.47 5.95 70.12 5.95 62.48 12.83"/><polygon class="cls-1" points="317.76 5.95 312.91 5.95 310.67 9.05 317.76 5.95"/><polygon class="cls-1" points="316.11 50.37 311.76 50.37 311.32 46.36 315.3 39.91 312.94 33.25 317.97 39.18 326.66 40.57 331.11 43.49 328.06 46.24 325.14 41.94 317.23 40.64 313.56 46.36 316.11 50.37"/><polygon class="cls-6" points="317.23 40.64 313.86 45.9 317.87 41.32 324.45 41.83 317.23 40.64"/><polygon class="cls-1" points="94.3 5.95 91.78 5.95 93.4 8.61 99.36 9.69 100.86 11.18 99.87 14.16 102.19 11.18 101.37 9.65 105.91 8.03 106.58 5.95 104.37 5.95 103.9 7.53 100.6 8.72 94.86 7.72 94.3 5.95"/></svg>