<svg xmlns="http://www.w3.org/2000/svg" xmlns:xlink="http://www.w3.org/1999/xlink" viewBox="0 0 80.66 147.56"><defs><style>.cls-1{fill:#fff;}.cls-2{fill:#2d2530;}.cls-3{fill:#252227;}.cls-4{fill:#f26c54;}.cls-5{fill:#fcdbdd;}.cls-6{mask:url(#mask);}.cls-7{fill:#f7a290;}.cls-8{mask:url(#mask-2);}</style><mask id="mask" x="-11.51" y="51.14" width="103.54" height="52.71" maskUnits="userSpaceOnUse"><path class="cls-1" d="M49.13,71.49l9.69-9.69a3.25,3.25,0,0,0,.67-.9,4.63,4.63,0,0,0-.84-5.33l-3.14-3.14a3.35,3.35,0,0,0-4.74,0L40.42,62.78,30.07,52.43a3.35,3.35,0,0,0-4.74,0L22,55.74a3.25,3.25,0,0,0-.67.9A4.63,4.63,0,0,0,22.19,62l9.52,9.52L22,81.18a3.25,3.25,0,0,0-.67.9,4.63,4.63,0,0,0,.84,5.33l3.14,3.14a3.36,3.36,0,0,0,4.74,0L40.42,80.2l9.69,9.69a3.25,3.25,0,0,0,.9.67,4.63,4.63,0,0,0,5.33-.84l2.48-2.48a3.25,3.25,0,0,0,.67-.9A4.63,4.63,0,0,0,58.65,81Z"/></mask><mask id="mask-2" x="-6.18" y="51.44" width="103.54" height="72.94" maskUnits="userSpaceOnUse"><path class="cls-1" d="M49.13,71.49l9.69-9.69a3.25,3.25,0,0,0,.67-.9,4.63,4.63,0,0,0-.84-5.33l-3.14-3.14a3.35,3.35,0,0,0-4.74,0L40.42,62.78,30.07,52.43a3.35,3.35,0,0,0-4.74,0L22,55.74a3.25,3.25,0,0,0-.67.9A4.63,4.63,0,0,0,22.19,62l9.52,9.52L22,81.18a3.25,3.25,0,0,0-.67.9,4.63,4.63,0,0,0,.84,5.33l3.14,3.14a3.36,3.36,0,0,0,4.74,0L40.42,80.2l9.69,9.69a3.25,3.25,0,0,0,.9.67,4.63,4.63,0,0,0,5.33-.84l2.48-2.48a3.25,3.25,0,0,0,.67-.9A4.63,4.63,0,0,0,58.65,81Z"/></mask></defs><g id="txt"><circle class="cls-2" cx="40.53" cy="74.89" r="34.41"/><path class="cls-3" d="M49.13,79.48,58.65,70a4.51,4.51,0,0,0,0-6.4l-2.31-2.32a4.54,4.54,0,0,0-6.4,0l-9.52,9.52L30.9,61.24a4.54,4.54,0,0,0-6.4,0l-2.31,2.32a4.51,4.51,0,0,0,0,6.4l9.52,9.52L22.19,89a4.53,4.53,0,0,0,0,6.41l2.31,2.31a4.63,4.63,0,0,0,6.4,0l9.52-9.52,9.52,9.52a4.54,4.54,0,0,0,6.4,0l2.31-2.31a4.51,4.51,0,0,0,0-6.4Z"/><path class="cls-4" d="M49.13,75.67l9.52-9.52a4.51,4.51,0,0,0,0-6.4l-2.31-2.31a4.54,4.54,0,0,0-6.4,0L40.42,67,30.9,57.44a4.54,4.54,0,0,0-6.4,0l-2.31,2.31a4.51,4.51,0,0,0,0,6.4l9.52,9.52-9.52,9.52a4.51,4.51,0,0,0,0,6.4L24.5,93.9a4.63,4.63,0,0,0,6.4,0l9.52-9.51,9.52,9.51a4.51,4.51,0,0,0,6.4,0l2.31-2.31a4.51,4.51,0,0,0,0-6.4Z"/><path class="cls-1" d="M49.13,72.63l9.52-9.52a4.51,4.51,0,0,0,0-6.4L56.34,54.4a4.52,4.52,0,0,0-6.4,0l-9.52,9.52L30.9,54.4a4.52,4.52,0,0,0-6.4,0l-2.31,2.31a4.51,4.51,0,0,0,0,6.4l9.52,9.52-9.52,9.52a4.51,4.51,0,0,0,0,6.4l2.31,2.31a4.63,4.63,0,0,0,6.4,0l9.52-9.52,9.52,9.52a4.51,4.51,0,0,0,6.4,0l2.31-2.31a4.51,4.51,0,0,0,0-6.4Z"/><path class="cls-5" d="M49.13,71.49,58.65,62a4.51,4.51,0,0,0,0-6.4l-2.31-2.31a4.52,4.52,0,0,0-6.4,0l-9.52,9.52L30.9,53.26a4.52,4.52,0,0,0-6.4,0l-2.31,2.31a4.51,4.51,0,0,0,0,6.4l9.52,9.52L22.19,81a4.51,4.51,0,0,0,0,6.4l2.31,2.31a4.63,4.63,0,0,0,6.4,0l9.52-9.52,9.52,9.52a4.51,4.51,0,0,0,6.4,0l2.31-2.31a4.51,4.51,0,0,0,0-6.4Z"/><g class="cls-6"><rect class="cls-7" x="-9.57" y="63.42" width="99.66" height="28.15" transform="translate(-18.49 12.88) rotate(-14.82)"/></g><g class="cls-8"><rect class="cls-4" x="-4.24" y="83.96" width="99.66" height="28.15" transform="matrix(0.97, -0.26, 0.26, 0.97, -23.56, 14.93)"/></g></g></svg>