<svg xmlns="http://www.w3.org/2000/svg" xmlns:xlink="http://www.w3.org/1999/xlink" viewBox="0 0 70.89 129.7"><defs><style>.cls-1{fill:#252227;}.cls-1,.cls-10,.cls-11,.cls-12,.cls-13,.cls-2,.cls-3,.cls-4,.cls-5,.cls-6,.cls-7,.cls-9{fill-rule:evenodd;}.cls-2{fill:#d1972a;}.cls-3{fill:#fff2cb;}.cls-4{fill:#fde596;}.cls-5{fill:#ffd741;}.cls-6{fill:#010101;}.cls-7{fill:#fff;}.cls-8{fill:#2d2530;}.cls-9{fill:#dab028;}.cls-10{fill:#f9ed25;}.cls-11{fill:url(#GradientFill_9);}.cls-12{fill:#f4c516;}.cls-13{fill:#fbee35;}</style><linearGradient id="GradientFill_9" x1="34.32" y1="38.45" x2="34.32" y2="11.31" gradientUnits="userSpaceOnUse"><stop offset="0" stop-color="#ffc526"/><stop offset="1" stop-color="#f8ed3f"/></linearGradient></defs><g id="Layer_2" data-name="Layer 2"><g id="txt"><path class="cls-1" d="M12.52,59.49H58.37a12.48,12.48,0,0,1,8.83,3.68h0A12.53,12.53,0,0,1,70.89,72v33.54a12.48,12.48,0,0,1-3.42,8.58h0a12.64,12.64,0,0,1-4.54,3.07v2.35A10.17,10.17,0,0,1,52.76,129.7H18.13a10.08,10.08,0,0,1-7.15-3h0a10.14,10.14,0,0,1-3-7.16V117.2a12.56,12.56,0,0,1-8-11.65V72a12.49,12.49,0,0,1,3.68-8.83h0a12.48,12.48,0,0,1,8.83-3.68Zm45.85,8.13H12.52a4.38,4.38,0,0,0-3.1,1.28h0A4.38,4.38,0,0,0,8.13,72v33.54a4.39,4.39,0,0,0,1.21,3,4.33,4.33,0,0,0,2.93,1.37l3.85.21v7H54.78v-7l3.84-.21a4.37,4.37,0,0,0,2.94-1.36h0a4.42,4.42,0,0,0,1.2-3V72a4.38,4.38,0,0,0-1.28-3.1h0A4.36,4.36,0,0,0,58.37,67.62Z"/><path class="cls-2" d="M12.52,67.21H58.37a8.48,8.48,0,0,1,8.46,8.45v29.89a8.48,8.48,0,0,1-8,8.44v5.56a6.09,6.09,0,0,1-6.08,6.08H51.23v-4.4H44.54v4.4H39.46v-4.4H32.78v4.4H26.87v-4.4H20.18v4.4H18.13a6.1,6.1,0,0,1-6.08-6.08V114a8.48,8.48,0,0,1-8-8.44V75.66A8.47,8.47,0,0,1,12.52,67.21Z"/><path class="cls-3" d="M12.52,63.56H58.37A8.48,8.48,0,0,1,66.83,72V101.9a8.48,8.48,0,0,1-8,8.44v5.56A6.09,6.09,0,0,1,52.76,122H51.23v-4.4H44.54V122H39.46v-4.4H32.78V122H26.87v-4.4H20.18V122H18.13a6.1,6.1,0,0,1-6.08-6.08v-5.56a8.48,8.48,0,0,1-8-8.44V72A8.47,8.47,0,0,1,12.52,63.56Z"/><path class="cls-4" d="M41.21,102.23a77.93,77.93,0,0,1-18.59,6.17,9.22,9.22,0,0,1-3.21.57h-.19a71.48,71.48,0,0,1-9.89.75,8.5,8.5,0,0,0,2.72.62v5.56A6.1,6.1,0,0,0,18.13,122h2.05v-4.4h6.69V122h5.91v-4.4h6.68V122h5.08v-4.4h6.69V122h1.53a6.09,6.09,0,0,0,6.08-6.08v-5.56a8.48,8.48,0,0,0,8-8.44V84.78a127.38,127.38,0,0,1-10.34,8.33,9.22,9.22,0,1,1-15.28,9.12ZM36,113.65A2.68,2.68,0,1,1,38.67,111,2.68,2.68,0,0,1,36,113.65Z"/><path class="cls-5" d="M19.41,89.28A10.48,10.48,0,1,1,12,92.36a10.46,10.46,0,0,1,7.41-3.08Zm5.64,4.84a8,8,0,1,0,2.33,5.63A7.94,7.94,0,0,0,25.05,94.12Z"/><path class="cls-6" d="M19.41,90.53a9.22,9.22,0,1,1-9.23,9.22A9.22,9.22,0,0,1,19.41,90.53Z"/><path class="cls-5" d="M50.1,89.28a10.5,10.5,0,1,1-7.4,3.08,10.48,10.48,0,0,1,7.4-3.08Zm5.64,4.83a8,8,0,1,0,2.33,5.64A8,8,0,0,0,55.74,94.11Z"/><path class="cls-6" d="M50.1,90.53a9.22,9.22,0,1,1-9.22,9.22A9.22,9.22,0,0,1,50.1,90.53Z"/><path class="cls-5" d="M36,107.24a3.74,3.74,0,1,1-2.64,1.09A3.75,3.75,0,0,1,36,107.24Zm1.14,2.59a1.61,1.61,0,1,0,.48,1.14A1.63,1.63,0,0,0,37.14,109.83Z"/><path class="cls-6" d="M36,108.3A2.68,2.68,0,1,1,33.32,111,2.67,2.67,0,0,1,36,108.3Z"/><path class="cls-7" d="M19.41,79.72A11.87,11.87,0,0,1,31.28,91.59a11.71,11.71,0,0,1-.06,1.19,11.88,11.88,0,0,0-23.63,0c0-.39,0-.79,0-1.19A11.86,11.86,0,0,1,19.41,79.72Z"/><path class="cls-7" d="M50,79.72A11.86,11.86,0,0,1,61.9,91.59a11.71,11.71,0,0,1-.06,1.19,11.87,11.87,0,0,0-23.62,0,11.71,11.71,0,0,1-.06-1.19A11.87,11.87,0,0,1,50,79.72Z"/><path class="cls-7" d="M11.32,65a5.9,5.9,0,1,1-5.9,5.9A5.9,5.9,0,0,1,11.32,65Z"/><path class="cls-7" d="M20.42,64.87a2.81,2.81,0,1,1-2.8,2.81A2.8,2.8,0,0,1,20.42,64.87Z"/><circle class="cls-8" cx="34.11" cy="25.47" r="25.47"/><path class="cls-1" d="M44.5,20.28,40,21q.94.35,1.74.69A12.94,12.94,0,0,1,45,23.62l0,0A10.05,10.05,0,0,1,47.5,27h0a10.24,10.24,0,0,1,.84,4.16,11,11,0,0,1-.3,2.55,9.91,9.91,0,0,1-.9,2.36h0a12.68,12.68,0,0,1-1.3,2,11.7,11.7,0,0,1-1.65,1.65A13.72,13.72,0,0,1,42.36,41a11.52,11.52,0,0,1-2,.86,12.22,12.22,0,0,1-1.61.4V37.94l.31-.1a8.2,8.2,0,0,0,1.27-.54,9.44,9.44,0,0,0,1.2-.82,7.3,7.3,0,0,0,1-1,8.37,8.37,0,0,0,.86-1.3h0A5.23,5.23,0,0,0,44,32.77a6.3,6.3,0,0,0,.18-1.56,6.1,6.1,0,0,0-.48-2.48h0a5.72,5.72,0,0,0-1.47-2h0a9.11,9.11,0,0,0-2.16-1.23c-.39-.17-.82-.34-1.28-.52V16a5.68,5.68,0,0,1,.41.59c.06.09.11.19.17.29l3.18-.5c-.1-.16-.21-.31-.31-.46a6,6,0,0,0-1.12-1.14,6.66,6.66,0,0,0-1.92-1l-.41-.13V9.33a16.48,16.48,0,0,1,1.75.47,10.58,10.58,0,0,1,3.13,1.65,10.23,10.23,0,0,1,1.93,2,10.77,10.77,0,0,1,1.33,2.4,4.4,4.4,0,0,1,.22.73,3.13,3.13,0,0,1-.2,2h0a3,3,0,0,1-1.66,1.54,3.79,3.79,0,0,1-.67.2Zm-5.73,16a5.46,5.46,0,0,0,.88-.78h0a5.14,5.14,0,0,0,1-1.52A4.62,4.62,0,0,0,41,32.24a4.42,4.42,0,0,0-.32-1.63,4.8,4.8,0,0,0-.83-1.41v0a5.55,5.55,0,0,0-1-.92Zm0,5.9-.17,0h0V43a3.63,3.63,0,0,1-1.08,2.59h0a3.63,3.63,0,0,1-2.59,1.08H33.57A3.66,3.66,0,0,1,31,45.56h0A3.63,3.63,0,0,1,29.9,43v-.77l-.47-.09-.11,0V37.74c.3.09.63.18,1,.26a18.83,18.83,0,0,0,1.92.31l1.76.2-3.13-2a6.92,6.92,0,0,1-.94-.73,5.86,5.86,0,0,1-.6-.63V25l.51.19c.71.24,1.62.53,2.74.85l1.52.43v16h.28v-4l2-.15a14,14,0,0,0,1.54-.18c.31-.06.61-.13.91-.21v4.29ZM29.32,9.41v4.36a11.74,11.74,0,0,1,2.86-.6L34.09,13V11h.28V23.65l1.54.44c1.07.3,2,.61,2.86.91V16l-.05-.05a4.67,4.67,0,0,0-.49-.51h0c-.17-.15-.35-.3-.53-.43L35,13.06l1.26.12a14.3,14.3,0,0,1,2.5.46V9.33l-.41-.08A3.69,3.69,0,0,0,34.9,6.79H33.57A3.7,3.7,0,0,0,31,7.87h0a3.53,3.53,0,0,0-.87,1.37l-.79.17Zm9.45,18.85-.11-.07h0a9.55,9.55,0,0,0-1.36-.71l-2.92-1.25V38.1l2.79-1a7.19,7.19,0,0,0,1.34-.62h0l.27-.17V28.26Zm-9.45-7.07V15.93l.12-.15h0a4.41,4.41,0,0,1,.77-.72h0a6.54,6.54,0,0,1,.86-.52l3-1.49V24.2L31,22.61a5.52,5.52,0,0,1-.86-.55h0a3.94,3.94,0,0,1-.74-.73h0A1.34,1.34,0,0,1,29.32,21.19Zm0,20.88a14,14,0,0,1-1.92-.56,12.57,12.57,0,0,1-2-1h0a11,11,0,0,1-1.76-1.3h0a12,12,0,0,1-1.39-1.49,10,10,0,0,1-1.06-1.65h0a10.67,10.67,0,0,1-.45-1c-.12-.32-.23-.64-.34-1a3.64,3.64,0,0,1-.11-2.44,3,3,0,0,1,2.59-2l.13,0L27.85,29l.2,0c-.71-.25-1.3-.5-1.77-.72a8.73,8.73,0,0,1-2-1.38A10.66,10.66,0,0,1,22.59,25a9,9,0,0,1-1.2-2.58A11,11,0,0,1,21,19.46a10.18,10.18,0,0,1,.77-4,9.94,9.94,0,0,1,2.31-3.34A10.64,10.64,0,0,1,27.51,10a13.68,13.68,0,0,1,1.81-.56v4.36l-.28.11A6.24,6.24,0,0,0,27,15.14a5.72,5.72,0,0,0-1.34,1.92,6.11,6.11,0,0,0-.45,2.4,6.53,6.53,0,0,0,.23,1.79,4.63,4.63,0,0,0,.62,1.35,6.39,6.39,0,0,0,1,1.16,4.46,4.46,0,0,0,1.05.72c.32.15.73.32,1.22.5V35.13l-.19-.26h0a7.79,7.79,0,0,1-.68-1.14q-.12-.27-.21-.54l-3.58.41a5.09,5.09,0,0,0,.26.57h0a6.23,6.23,0,0,0,.63,1,8.43,8.43,0,0,0,.92,1h0a6.09,6.09,0,0,0,1.08.81h0a8.69,8.69,0,0,0,1.34.64l.44.15v4.33Zm0-26.14a4.25,4.25,0,0,0-.61,1.15h0a4.48,4.48,0,0,0-.24,1.44A4.62,4.62,0,0,0,28.71,20a4.32,4.32,0,0,0,.61,1.19Z"/><path class="cls-9" d="M44.18,18.22l-5,.79a1.16,1.16,0,0,1-1.46-.82,4.54,4.54,0,0,0-.55-.93,3.43,3.43,0,0,0-.65-.57v5.38c3.52,1,5.89,2,7.14,3.13a7.75,7.75,0,0,1,2.64,6,8.19,8.19,0,0,1-1,3.91,9.73,9.73,0,0,1-5.57,4.72,13.71,13.71,0,0,1-3.26.58V43a1.58,1.58,0,0,1-1.57,1.58H33.57A1.58,1.58,0,0,1,32,43V40.39a16.8,16.8,0,0,1-3.86-.84A9.48,9.48,0,0,1,25,37.68a9,9,0,0,1-2-2.56,13,13,0,0,1-.68-1.71c-.28-.81-.31-1.54.87-1.75l4.92-.57c1.3-.3,2,0,2,1a2.92,2.92,0,0,0,.69,1.61A4,4,0,0,0,32,34.73V28a32,32,0,0,1-4.81-1.67,7.51,7.51,0,0,1-4.09-6.9,7.78,7.78,0,0,1,2.44-5.83A10.47,10.47,0,0,1,32,11.09v-.62a1.58,1.58,0,0,1,1.57-1.58H34.9a1.58,1.58,0,0,1,1.57,1.58v.63a11.36,11.36,0,0,1,5.91,2A8.24,8.24,0,0,1,45,16.58c.3.77.17,1.44-.79,1.64ZM36.47,29.41v5.74a3.9,3.9,0,0,0,1.62-1,2.77,2.77,0,0,0,.78-1.91,2.59,2.59,0,0,0-.66-1.71,4.65,4.65,0,0,0-1.74-1.12ZM32,20.75V16.41a2.9,2.9,0,0,0-.94.69,2.21,2.21,0,0,0-.5,1.43A2.3,2.3,0,0,0,31.07,20,2.75,2.75,0,0,0,32,20.75Z"/><path class="cls-10" d="M36.47,16.69v5.38c3.52,1,5.89,2,7.14,3.13a7.61,7.61,0,0,1,2.6,5.21,7.94,7.94,0,0,1-.91,3.12,9.76,9.76,0,0,1-2.43,3,9.64,9.64,0,0,1-3.14,1.73,13.68,13.68,0,0,1-3.26.59v2.54A1.58,1.58,0,0,1,34.9,43H33.57A1.58,1.58,0,0,1,32,41.37V38.8A16.8,16.8,0,0,1,28.14,38,9.48,9.48,0,0,1,25,36.09a9.15,9.15,0,0,1-2-2.56A11,11,0,0,1,22.43,32a1.39,1.39,0,0,1,.8-.36l4.92-.57c1.3-.3,2,0,2,1a2.92,2.92,0,0,0,.69,1.61A4,4,0,0,0,32,34.73V26.44a32,32,0,0,1-4.81-1.67,7.52,7.52,0,0,1-2.87-2.58,7.09,7.09,0,0,1-1.18-3.51,7.66,7.66,0,0,1,2.4-5A10.47,10.47,0,0,1,32,11.09v-.62a1.58,1.58,0,0,1,1.57-1.58H34.9a1.58,1.58,0,0,1,1.57,1.58v.63a11.36,11.36,0,0,1,5.91,2,8.13,8.13,0,0,1,2.47,3.2,1.36,1.36,0,0,1-.67.32l-5,.79a1.16,1.16,0,0,1-1.46-.83,4.71,4.71,0,0,0-.55-.92,3.84,3.84,0,0,0-.65-.58v1.6Zm0,11.13v7.33a3.9,3.9,0,0,0,1.62-1,2.77,2.77,0,0,0,.78-1.91,2.55,2.55,0,0,0-.13-.78,2.76,2.76,0,0,0,.13-.82,2.58,2.58,0,0,0-.66-1.7,4.53,4.53,0,0,0-1.74-1.12ZM32,16.41V14.82a2.76,2.76,0,0,0-.94.69,2.19,2.19,0,0,0-.5,1.43,2.64,2.64,0,0,0,.13.81,2.45,2.45,0,0,0-.13.78A2.3,2.3,0,0,0,31.07,20a2.75,2.75,0,0,0,.93.73V16.41Z"/><path class="cls-11" d="M36.47,16.43v5.39c3.52,1,5.89,2,7.14,3.12a7.63,7.63,0,0,1,2.6,5.21,8,8,0,0,1-.91,3.13A9.76,9.76,0,0,1,39.73,38a14.2,14.2,0,0,1-3.26.59v2.54a1.58,1.58,0,0,1-1.57,1.57H33.57A1.58,1.58,0,0,1,32,41.12V38.54a16.29,16.29,0,0,1-3.86-.84A9.63,9.63,0,0,1,25,35.84a9.29,9.29,0,0,1-2-2.56,11.19,11.19,0,0,1-.61-1.52,1.46,1.46,0,0,1,.8-.36l4.92-.57c1.3-.29,2,0,2,1a2.92,2.92,0,0,0,.69,1.61A3.89,3.89,0,0,0,32,34.47V26.18a32,32,0,0,1-4.81-1.67,7.37,7.37,0,0,1-2.87-2.58,7.09,7.09,0,0,1-1.18-3.51,7.64,7.64,0,0,1,2.4-5A10.42,10.42,0,0,1,32,10.84v-.63a1.57,1.57,0,0,1,1.57-1.57H34.9a1.57,1.57,0,0,1,1.57,1.57v.63a11.36,11.36,0,0,1,5.91,2,8.16,8.16,0,0,1,2.47,3.21,1.35,1.35,0,0,1-.67.31l-5,.8a1.17,1.17,0,0,1-1.46-.83,4.17,4.17,0,0,0-.55-.92,3.14,3.14,0,0,0-.65-.58v1.59Zm0,11.13v7.33a3.8,3.8,0,0,0,1.62-1A2.77,2.77,0,0,0,38.87,32a2.55,2.55,0,0,0-.13-.78,2.75,2.75,0,0,0,.13-.81,2.59,2.59,0,0,0-.66-1.71,4.65,4.65,0,0,0-1.74-1.12ZM32,16.16v-1.6a2.9,2.9,0,0,0-.94.69,2.23,2.23,0,0,0-.5,1.44,2.63,2.63,0,0,0,.13.8,2.56,2.56,0,0,0-.13.79,2.3,2.3,0,0,0,.51,1.49,2.73,2.73,0,0,0,.93.72V16.16Z"/><path class="cls-12" d="M46.17,29.74c0,.14,0,.27,0,.41a8,8,0,0,1-.91,3.13A9.76,9.76,0,0,1,39.73,38a14.2,14.2,0,0,1-3.26.59v2.54a1.58,1.58,0,0,1-1.57,1.57H33.57A1.58,1.58,0,0,1,32,41.12V38.54a16.29,16.29,0,0,1-3.86-.84A9.63,9.63,0,0,1,25,35.84a9.29,9.29,0,0,1-2-2.56,7.84,7.84,0,0,1-.32-.72,58.6,58.6,0,0,0,7.6,0,4.31,4.31,0,0,0,.52.88A3.89,3.89,0,0,0,32,34.47V32.41c.9-.08,1.81-.18,2.74-.3l1.73-.23v3a3.8,3.8,0,0,0,1.62-1A2.77,2.77,0,0,0,38.87,32a2.72,2.72,0,0,0,0-.49A65.09,65.09,0,0,0,46.17,29.74Z"/><path class="cls-13" d="M36.47,16.43v.8l-1.73.2c-.93.12-1.84.25-2.74.39V14.56a2.9,2.9,0,0,0-.94.69,2.23,2.23,0,0,0-.5,1.44,2.63,2.63,0,0,0,.13.8,2.85,2.85,0,0,0-.12.58,65.85,65.85,0,0,0-7.21,1.72,8.34,8.34,0,0,1-.22-1.37,7.64,7.64,0,0,1,2.4-5A10.42,10.42,0,0,1,32,10.84v-.63a1.57,1.57,0,0,1,1.57-1.57H34.9a1.57,1.57,0,0,1,1.57,1.57v.63a11.36,11.36,0,0,1,5.91,2,8.16,8.16,0,0,1,2.47,3.21,1.35,1.35,0,0,1-.67.31l-3.56.56c-.78,0-1.58.08-2.38.14a1.35,1.35,0,0,1-.57-.73,4.17,4.17,0,0,0-.55-.92,3.14,3.14,0,0,0-.65-.58Z"/></g></g></svg>