<svg xmlns="http://www.w3.org/2000/svg" xmlns:xlink="http://www.w3.org/1999/xlink" viewBox="0 0 80.66 147.56"><defs><style>.cls-1{fill:#dfebb0;}.cls-2{fill:#fff;}.cls-3{fill:#2d2530;}.cls-4{fill:#252227;}.cls-5{fill:#56a457;}.cls-6{mask:url(#mask);}.cls-7{fill:#afcd8e;}.cls-8{mask:url(#mask-2);}.cls-9{fill:#83b672;}</style><mask id="mask" x="-22.31" y="55.4" width="107.4" height="55.36" maskUnits="userSpaceOnUse"><path class="cls-1" d="M63.82,65.05a3.63,3.63,0,0,0,0-5.14L60.4,56.49a3.74,3.74,0,0,0-5.29,0L33.88,77.73l-9.47-9.47a3.63,3.63,0,0,0-5.14,0l-3.5,3.49a3.63,3.63,0,0,0,0,5.14L31.19,92.31a3.71,3.71,0,0,0,5.33,0Z"/></mask><mask id="mask-2" x="-9.19" y="55.4" width="107.4" height="67.45" maskUnits="userSpaceOnUse"><path class="cls-2" d="M63.82,65.05a3.63,3.63,0,0,0,0-5.14L60.4,56.49a3.74,3.74,0,0,0-5.29,0L33.88,77.73l-9.47-9.47a3.63,3.63,0,0,0-5.14,0l-3.5,3.49a3.63,3.63,0,0,0,0,5.14L31.19,92.31a3.71,3.71,0,0,0,5.33,0Z"/></mask></defs><g id="txt"><circle class="cls-3" cx="39.93" cy="74.83" r="34.89"/><path class="cls-4" d="M63.75,68.28,60.4,64.93a3.74,3.74,0,0,0-5.29,0L33.88,86.17l-9.4-9.4a3.84,3.84,0,0,0-5.29,0l-3.34,3.35a3.73,3.73,0,0,0,0,5.28l15.39,15.39a3.72,3.72,0,0,0,5.28,0L63.75,73.56A3.75,3.75,0,0,0,63.75,68.28Z"/><path class="cls-5" d="M63.75,63.65,60.4,60.3a3.76,3.76,0,0,0-5.29,0L33.88,81.54l-9.4-9.4a3.84,3.84,0,0,0-5.29,0l-3.34,3.35a3.73,3.73,0,0,0,0,5.28L31.24,96.16a3.72,3.72,0,0,0,5.28,0L63.75,68.94A3.76,3.76,0,0,0,63.75,63.65Z"/><path class="cls-2" d="M63.75,60.61,60.4,57.26a3.76,3.76,0,0,0-5.29,0L33.88,78.5l-9.4-9.4a3.84,3.84,0,0,0-5.29,0l-3.34,3.35a3.73,3.73,0,0,0,0,5.28L31.24,93.12a3.72,3.72,0,0,0,5.28,0L63.75,65.9A3.76,3.76,0,0,0,63.75,60.61Z"/><path class="cls-1" d="M63.75,59.84,60.4,56.49a3.74,3.74,0,0,0-5.29,0L33.88,77.73l-9.4-9.4a3.84,3.84,0,0,0-5.29,0l-3.34,3.35a3.73,3.73,0,0,0,0,5.28L31.24,92.35a3.72,3.72,0,0,0,5.28,0L63.75,65.12A3.75,3.75,0,0,0,63.75,59.84Z"/><g class="cls-6"><rect class="cls-7" x="-20.28" y="69.02" width="103.35" height="29.31" transform="translate(-19.89 10.48) rotate(-14.45)"/></g><g class="cls-8"><rect class="cls-9" x="-7.17" y="81.11" width="103.35" height="29.31" transform="translate(-22.49 14.13) rotate(-14.45)"/></g></g></svg>